<svg width="460" height="442" viewBox="0 0 460 442" fill="none" xmlns="http://www.w3.org/2000/svg">
<path d="M216.866 3.68761L202.79 11.5919L29.3716 108.975L15.2957 116.879C8.46561 120.725 3.39662 127.202 1.20082 134.89C-0.99499 142.577 -0.138296 150.847 3.58296 157.885L132.724 401.48C136.46 408.509 142.754 413.726 150.223 415.986C157.692 418.246 165.728 417.364 172.566 413.535L172.602 413.514L374.1 300.363L374.136 300.343C380.966 296.497 386.035 290.02 388.231 282.333C390.427 274.645 389.57 266.375 385.849 259.337L256.708 15.7424C252.972 8.7129 246.678 3.49591 239.209 1.23599C231.74 -1.02394 223.704 -0.142257 216.866 3.68761Z" fill="#58A4F9"/>
<path d="M220.915 11.3249L204.243 20.687L36.0163 115.155L19.3446 124.517C14.4807 127.255 10.8709 131.868 9.30724 137.342C7.74354 142.817 8.35362 148.706 11.0036 153.718L140.144 397.313C142.805 402.319 147.287 406.034 152.606 407.643C157.925 409.252 163.647 408.624 168.517 405.897L168.553 405.877L370.051 292.726L370.087 292.705C374.951 289.966 378.561 285.354 380.125 279.88C381.688 274.405 381.078 268.516 378.428 263.504L249.288 19.9095C246.627 14.9037 242.145 11.1885 236.826 9.57916C231.507 7.96979 225.785 8.59762 220.915 11.3249Z" fill="white"/>
<path d="M223.695 86.9367L148.544 129.138C147.405 129.777 146.067 129.925 144.823 129.548C143.578 129.172 142.53 128.302 141.909 127.13C141.288 125.959 141.144 124.581 141.51 123.3C141.876 122.02 142.721 120.941 143.86 120.302L219.01 78.1008C220.149 77.4614 221.488 77.3138 222.732 77.6902C223.976 78.0667 225.024 78.9365 225.645 80.1082C226.266 81.2799 226.41 82.6576 226.044 83.9382C225.678 85.2188 224.833 86.2974 223.695 86.9367H223.695Z" fill="#C2DFFF"/>
<path d="M249.307 91.9039L156.449 144.048C155.31 144.688 153.972 144.835 152.727 144.459C151.483 144.082 150.435 143.213 149.814 142.041C149.193 140.869 149.049 139.492 149.415 138.211C149.781 136.93 150.626 135.852 151.764 135.212L244.622 83.068C245.186 82.7514 245.805 82.5522 246.443 82.4818C247.082 82.4114 247.728 82.471 248.344 82.6574C248.96 82.8439 249.534 83.1533 250.034 83.5682C250.534 83.9831 250.95 84.4952 251.257 85.0754C251.565 85.6556 251.758 86.2924 251.827 86.9496C251.895 87.6067 251.837 88.2713 251.656 88.9054C251.475 89.5395 251.174 90.1307 250.771 90.6451C250.368 91.1596 249.87 91.5874 249.307 91.9039H249.307Z" fill="#C2DFFF"/>
<path d="M117.649 111.571L48.364 150.478C47.8186 150.784 47.4137 151.301 47.2385 151.915C47.0633 152.528 47.1319 153.188 47.4294 153.75L76.9326 209.401C77.2304 209.962 77.7325 210.379 78.3286 210.559C78.9248 210.74 79.5662 210.669 80.1117 210.363L149.396 171.456C149.942 171.15 150.347 170.633 150.522 170.019C150.697 169.406 150.628 168.746 150.331 168.184L120.828 112.533C120.53 111.972 120.028 111.555 119.432 111.375C118.836 111.194 118.194 111.265 117.649 111.571Z" fill="#C2DFFF"/>
<path d="M260.983 157.549L159.05 214.789C158.486 215.106 157.867 215.305 157.229 215.376C156.59 215.446 155.945 215.386 155.329 215.2C154.712 215.014 154.138 214.704 153.638 214.289C153.138 213.874 152.723 213.362 152.415 212.782C152.108 212.202 151.914 211.565 151.846 210.908C151.777 210.251 151.835 209.586 152.016 208.952C152.197 208.318 152.498 207.727 152.901 207.212C153.304 206.698 153.802 206.27 154.366 205.953L256.298 148.713C257.437 148.074 258.775 147.926 260.02 148.303C261.264 148.679 262.312 149.549 262.933 150.721C263.554 151.892 263.698 153.27 263.332 154.551C262.966 155.831 262.121 156.91 260.983 157.549H260.983Z" fill="#C2DFFF"/>
<path d="M286.595 162.516L166.955 229.7C165.816 230.34 164.478 230.487 163.233 230.111C161.989 229.734 160.941 228.864 160.32 227.693C159.699 226.521 159.555 225.143 159.921 223.863C160.287 222.582 161.132 221.504 162.27 220.864L281.91 153.68C283.049 153.041 284.388 152.893 285.632 153.27C286.876 153.646 287.924 154.516 288.545 155.688C289.166 156.86 289.31 158.237 288.944 159.518C288.578 160.798 287.733 161.877 286.595 162.516H286.595Z" fill="#C2DFFF"/>
<path d="M120.229 261.667C131.687 261.667 140.975 252.108 140.975 240.316C140.975 228.523 131.687 218.964 120.229 218.964C108.771 218.964 99.483 228.523 99.483 240.316C99.483 252.108 108.771 261.667 120.229 261.667Z" fill="#C2DFFF"/>
<path d="M430.635 104.06H201.013C193.227 104.069 185.763 107.256 180.258 112.922C174.753 118.588 171.657 126.27 171.648 134.282V411.778C171.657 419.79 174.753 427.472 180.258 433.138C185.763 438.804 193.227 441.991 201.013 442H430.635C438.42 441.991 445.884 438.804 451.39 433.138C456.895 427.472 459.991 419.79 460 411.778V134.282C459.991 126.27 456.895 118.588 451.39 112.922C445.884 107.256 438.42 104.069 430.635 104.06Z" fill="#58A4F9"/>
<path d="M430.635 112.76H201.013C195.469 112.767 190.153 115.036 186.233 119.071C182.313 123.106 180.107 128.576 180.101 134.282V411.778C180.107 417.484 182.313 422.954 186.233 426.989C190.153 431.024 195.469 433.293 201.013 433.3H430.635C436.179 433.293 441.495 431.024 445.415 426.989C449.335 422.954 451.54 417.484 451.547 411.778V134.282C451.54 128.576 449.335 123.106 445.415 119.071C441.495 115.036 436.179 112.767 430.635 112.76Z" fill="white"/>
<path d="M397.887 180.505H312.278C310.981 180.505 309.737 179.975 308.82 179.031C307.903 178.087 307.388 176.807 307.388 175.473C307.388 174.138 307.903 172.858 308.82 171.914C309.737 170.97 310.981 170.44 312.278 170.44H397.887C398.53 170.439 399.166 170.569 399.76 170.821C400.354 171.074 400.894 171.444 401.348 171.912C401.803 172.379 402.164 172.934 402.41 173.545C402.656 174.156 402.783 174.811 402.783 175.473C402.783 176.134 402.656 176.789 402.41 177.4C402.164 178.011 401.803 178.566 401.348 179.033C400.894 179.501 400.354 179.871 399.76 180.124C399.166 180.376 398.53 180.506 397.887 180.505Z" fill="#58A4F9"/>
<path d="M418.059 197.491H312.278C310.981 197.491 309.737 196.961 308.82 196.017C307.903 195.073 307.388 193.793 307.388 192.458C307.388 191.123 307.903 189.843 308.82 188.9C309.737 187.956 310.981 187.425 312.278 187.425H418.059C419.356 187.425 420.599 187.956 421.516 188.9C422.434 189.843 422.949 191.123 422.949 192.458C422.949 193.793 422.434 195.073 421.516 196.017C420.599 196.961 419.356 197.491 418.059 197.491Z" fill="#58A4F9"/>
<path d="M293.332 149.855H214.405C213.784 149.855 213.188 150.109 212.749 150.561C212.309 151.014 212.062 151.627 212.062 152.266V215.663C212.062 216.302 212.309 216.915 212.749 217.368C213.188 217.82 213.784 218.074 214.405 218.074H293.332C293.954 218.074 294.549 217.82 294.989 217.368C295.428 216.915 295.675 216.302 295.675 215.663V152.266C295.675 151.627 295.428 151.014 294.989 150.561C294.549 150.109 293.954 149.855 293.332 149.855Z" fill="#E6E6E6"/>
<path d="M236.055 188.785C236.088 194.136 234.171 199.307 230.683 203.276C227.232 207.174 222.094 209.759 216.91 208.69C212.135 207.705 208.256 203.41 208.74 198.215C208.82 197.09 209.138 195.996 209.671 195.01C210.204 194.024 210.94 193.17 211.827 192.507C212.713 191.843 213.73 191.387 214.806 191.169C215.882 190.952 216.991 190.979 218.055 191.247C222.591 192.459 224.398 199.186 220.618 202.344C219.712 203.101 218.409 201.776 219.324 201.011C221.822 198.924 221.051 194.357 218.035 193.212C214.524 191.879 210.805 194.747 210.552 198.441C210.253 202.82 213.513 206.119 217.511 206.895C221.836 207.735 226.124 205.457 229.054 202.313C232.413 198.661 234.266 193.813 234.225 188.785C234.233 188.54 234.333 188.309 234.504 188.139C234.675 187.97 234.903 187.875 235.14 187.875C235.378 187.875 235.606 187.97 235.776 188.139C235.947 188.309 236.047 188.54 236.055 188.785Z" fill="#58A4F9"/>
<path d="M253.93 200.761C271.966 200.761 286.586 185.714 286.586 167.151C286.586 148.589 271.966 133.542 253.93 133.542C235.894 133.542 221.274 148.589 221.274 167.151C221.274 185.714 235.894 200.761 253.93 200.761Z" fill="#1981FF"/>
<path d="M252.259 181.492L252.225 180.236C254.496 180.171 256.497 180.025 258.001 178.894C258.428 178.555 258.778 178.126 259.029 177.635C259.28 177.144 259.425 176.604 259.454 176.05C259.481 175.712 259.431 175.372 259.309 175.057C259.187 174.741 258.996 174.459 258.751 174.232C257.752 173.365 256.146 173.645 254.975 174.198L253.965 174.675L255.902 160.111L257.111 160.282L255.464 172.67C257.055 172.188 258.529 172.396 259.539 173.273C259.926 173.622 260.23 174.057 260.427 174.547C260.624 175.036 260.709 175.566 260.674 176.094C260.638 176.838 260.445 177.565 260.108 178.224C259.77 178.883 259.297 179.458 258.721 179.908C256.789 181.362 254.277 181.434 252.259 181.492Z" fill="#58A4F9"/>
<path d="M269.663 161.35H263.09V162.605H269.663V161.35Z" fill="#58A4F9"/>
<path d="M248.916 161.35H242.344V162.605H248.916V161.35Z" fill="#58A4F9"/>
<path d="M235.841 218.074C238.288 216.476 240.934 215.223 243.706 214.35C243.442 213.382 243.446 212.358 243.718 211.392C244.086 210.173 244.827 209.108 245.831 208.358C246.835 207.607 248.048 207.211 249.289 207.229H257.246C258.489 207.212 259.703 207.609 260.709 208.361C261.715 209.112 262.459 210.177 262.829 211.398C263.102 212.362 263.106 213.384 262.841 214.35C265.613 215.224 268.258 216.477 270.706 218.074H235.841Z" fill="#58A4F9"/>
<path d="M291.337 154.678C290.742 153.936 290.01 153.324 289.183 152.876C288.458 152.486 287.652 152.281 286.834 152.279C285.71 152.293 284.619 152.671 283.716 153.359C281.232 155.168 279.512 159.068 279.512 163.583C279.512 169.247 282.221 173.945 285.742 174.761C286.1 174.844 286.466 174.886 286.834 174.887C290.867 174.887 294.156 169.819 294.156 163.583C294.156 159.966 293.051 156.744 291.337 154.678Z" fill="#3F3D56"/>
<path d="M224.266 153.089H224.26C223.444 152.568 222.505 152.288 221.544 152.279C220.726 152.281 219.92 152.486 219.195 152.876C218.368 153.324 217.636 153.936 217.041 154.678L217.035 154.684C215.327 156.75 214.222 159.972 214.222 163.583C214.222 168.456 216.223 172.614 219.03 174.202C219.799 174.645 220.664 174.881 221.544 174.887C221.74 174.887 221.936 174.874 222.13 174.849H222.136C225.895 174.384 228.867 169.511 228.867 163.583C228.867 158.835 226.957 154.76 224.266 153.089Z" fill="#3F3D56"/>
<path d="M219.488 173.122C219.633 173.122 219.777 173.086 219.906 173.018C220.035 172.949 220.147 172.85 220.231 172.729C220.316 172.607 220.372 172.467 220.393 172.319C220.415 172.171 220.402 172.02 220.355 171.878C218.606 166.525 218.08 160.828 218.818 155.231C219.555 149.634 221.537 144.287 224.609 139.606C227.681 134.926 231.76 131.037 236.53 128.243C241.299 125.448 246.631 123.824 252.109 123.495C257.588 123.166 263.067 124.141 268.12 126.346C273.173 128.55 277.664 131.924 281.244 136.206C284.824 140.487 287.396 145.56 288.761 151.031C290.126 156.502 290.248 162.223 289.115 167.749C289.065 167.994 289.111 168.249 289.244 168.458C289.376 168.668 289.584 168.814 289.822 168.866C290.059 168.917 290.307 168.87 290.51 168.733C290.714 168.597 290.856 168.383 290.906 168.138C292.098 162.328 291.971 156.312 290.536 150.56C289.101 144.808 286.397 139.474 282.633 134.972C278.869 130.471 274.148 126.923 268.835 124.605C263.522 122.287 257.762 121.261 252.002 121.607C246.241 121.953 240.636 123.662 235.621 126.6C230.607 129.539 226.318 133.627 223.089 138.549C219.859 143.471 217.776 149.092 217.001 154.977C216.227 160.862 216.781 166.852 218.621 172.481C218.682 172.667 218.799 172.83 218.954 172.945C219.11 173.06 219.297 173.122 219.488 173.122Z" fill="#3F3D56"/>
<path d="M270.335 145.375C271.628 147.192 270.991 149.64 269.628 151.206C267.855 153.245 265.028 153.373 262.573 152.995C259.819 152.57 256.897 151.242 254.108 152.137C251.731 152.9 250.036 155.119 247.567 155.676C245.377 156.17 242.758 155.516 241.99 153.114C241.621 151.96 243.388 151.465 243.755 152.613C244.252 154.167 246.397 154.136 247.625 153.706C249.594 153.016 251.111 151.338 253.046 150.536C255.328 149.591 257.803 150.018 260.126 150.556C262.316 151.063 264.836 151.816 267.017 150.868C268.631 150.167 269.915 147.957 268.754 146.326C268.057 145.347 269.645 144.406 270.335 145.375Z" fill="#58A4F9"/>
<path d="M397.758 260.872H281.64C280.998 260.872 280.362 260.742 279.768 260.489C279.175 260.236 278.636 259.866 278.182 259.398C277.728 258.931 277.368 258.376 277.122 257.765C276.876 257.155 276.75 256.5 276.75 255.839C276.75 255.179 276.876 254.524 277.122 253.913C277.368 253.303 277.728 252.748 278.182 252.281C278.636 251.813 279.175 251.443 279.768 251.19C280.362 250.937 280.998 250.807 281.64 250.807H397.758C399.054 250.808 400.297 251.339 401.213 252.283C402.128 253.226 402.643 254.506 402.643 255.839C402.643 257.173 402.128 258.453 401.213 259.396C400.297 260.34 399.054 260.871 397.758 260.872Z" fill="#C2DFFF"/>
<path d="M417.93 277.858H281.64C280.997 277.859 280.361 277.729 279.767 277.477C279.173 277.224 278.633 276.853 278.178 276.386C277.724 275.919 277.363 275.364 277.117 274.753C276.871 274.142 276.744 273.487 276.744 272.825C276.744 272.164 276.871 271.509 277.117 270.898C277.363 270.287 277.724 269.732 278.178 269.265C278.633 268.797 279.173 268.427 279.767 268.174C280.361 267.921 280.997 267.792 281.64 267.792H417.93C418.572 267.792 419.209 267.921 419.803 268.174C420.397 268.427 420.936 268.797 421.391 269.265C421.846 269.732 422.206 270.287 422.453 270.898C422.699 271.509 422.825 272.164 422.825 272.825C422.825 273.487 422.699 274.142 422.453 274.753C422.206 275.364 421.846 275.919 421.391 276.386C420.936 276.853 420.397 277.224 419.803 277.477C419.209 277.729 418.572 277.859 417.93 277.858Z" fill="#C2DFFF"/>
<path d="M397.758 321.922H281.64C280.343 321.922 279.099 321.392 278.182 320.448C277.265 319.504 276.75 318.224 276.75 316.889C276.75 315.554 277.265 314.274 278.182 313.33C279.099 312.386 280.343 311.856 281.64 311.856H397.758C399.055 311.856 400.299 312.386 401.216 313.33C402.133 314.274 402.648 315.554 402.648 316.889C402.648 318.224 402.133 319.504 401.216 320.448C400.299 321.392 399.055 321.922 397.758 321.922Z" fill="#C2DFFF"/>
<path d="M417.93 338.908H281.64C280.343 338.908 279.099 338.377 278.182 337.433C277.265 336.49 276.75 335.209 276.75 333.875C276.75 332.54 277.265 331.26 278.182 330.316C279.099 329.372 280.343 328.842 281.64 328.842H417.93C419.227 328.842 420.47 329.372 421.388 330.316C422.305 331.26 422.82 332.54 422.82 333.875C422.82 335.209 422.305 336.49 421.388 337.433C420.47 338.377 419.227 338.908 417.93 338.908Z" fill="#C2DFFF"/>
<path d="M235.682 285.495C247.14 285.495 256.428 275.936 256.428 264.143C256.428 252.351 247.14 242.792 235.682 242.792C224.224 242.792 214.936 252.351 214.936 264.143C214.936 275.936 224.224 285.495 235.682 285.495Z" fill="#C2DFFF"/>
<path d="M235.682 347.039C247.14 347.039 256.428 337.479 256.428 325.687C256.428 313.895 247.14 304.335 235.682 304.335C224.224 304.335 214.936 313.895 214.936 325.687C214.936 337.479 224.224 347.039 235.682 347.039Z" fill="#C2DFFF"/>
<path d="M397.758 383.465H281.64C280.343 383.465 279.099 382.935 278.182 381.991C277.265 381.047 276.75 379.767 276.75 378.432C276.75 377.098 277.265 375.818 278.182 374.874C279.099 373.93 280.343 373.4 281.64 373.4H397.758C399.055 373.4 400.299 373.93 401.216 374.874C402.133 375.818 402.648 377.098 402.648 378.432C402.648 379.767 402.133 381.047 401.216 381.991C400.299 382.935 399.055 383.465 397.758 383.465Z" fill="#C2DFFF"/>
<path d="M417.93 400.451H281.64C280.343 400.451 279.099 399.921 278.182 398.977C277.265 398.033 276.75 396.753 276.75 395.418C276.75 394.083 277.265 392.803 278.182 391.859C279.099 390.916 280.343 390.385 281.64 390.385H417.93C419.227 390.385 420.47 390.916 421.388 391.859C422.305 392.803 422.82 394.083 422.82 395.418C422.82 396.753 422.305 398.033 421.388 398.977C420.47 399.921 419.227 400.451 417.93 400.451Z" fill="#C2DFFF"/>
<path d="M235.682 408.582C247.14 408.582 256.428 399.023 256.428 387.23C256.428 375.438 247.14 365.878 235.682 365.878C224.224 365.878 214.936 375.438 214.936 387.23C214.936 399.023 224.224 408.582 235.682 408.582Z" fill="#C2DFFF"/>
</svg>
