<svg width="460" height="442" viewBox="0 0 518 442" fill="none" xmlns="http://www.w3.org/2000/svg">
<g clip-path="url(#clip0_107_196)">
<path d="M260.719 14.0764H29.5613C21.7239 14.0866 14.2099 17.662 8.66803 24.0183C3.12612 30.3747 0.00880538 38.9928 0 47.982V359.296C0.00880703 368.285 3.12613 376.904 8.66804 383.26C14.2099 389.616 21.7239 393.192 29.5613 393.202H260.719C268.556 393.192 276.07 389.616 281.612 383.26C287.154 376.904 290.271 368.285 290.28 359.296V47.982C290.271 38.9928 287.154 30.3747 281.612 24.0183C276.07 17.662 268.556 14.0866 260.719 14.0764Z" fill="#58A4F9"/>
<path d="M260.862 23.4607H29.4187C23.8306 23.4679 18.4731 26.0194 14.5217 30.5553C10.5703 35.0913 8.34766 41.2413 8.34138 47.6561V359.622C8.34767 366.037 10.5703 372.187 14.5217 376.723C18.4731 381.259 23.8306 383.81 29.4187 383.817H260.862C266.45 383.81 271.807 381.259 275.758 376.723C279.71 372.187 281.932 366.037 281.939 359.622V47.6561C281.932 41.2414 279.71 35.0914 275.758 30.5554C271.807 26.0195 266.45 23.468 260.862 23.4607Z" fill="white"/>
<path d="M226.132 114.488H109.192C107.886 114.488 106.633 113.895 105.71 112.839C104.786 111.783 104.267 110.351 104.267 108.858C104.267 107.364 104.786 105.932 105.71 104.876C106.633 103.82 107.886 103.227 109.192 103.227H226.132C226.778 103.227 227.419 103.373 228.016 103.656C228.614 103.939 229.157 104.353 229.614 104.876C230.071 105.399 230.434 106.02 230.682 106.703C230.929 107.386 231.056 108.118 231.056 108.858C231.056 109.597 230.929 110.329 230.682 111.012C230.434 111.695 230.071 112.316 229.614 112.839C229.157 113.362 228.614 113.777 228.016 114.06C227.419 114.343 226.778 114.488 226.132 114.488Z" fill="#C2DFFF"/>
<path d="M246.166 133.257H109.177C107.874 133.255 106.626 132.661 105.705 131.606C104.784 130.55 104.267 129.119 104.267 127.626C104.267 126.134 104.784 124.703 105.705 123.647C106.626 122.591 107.874 121.997 109.177 121.996H246.166C247.469 121.997 248.717 122.591 249.638 123.647C250.559 124.703 251.076 126.134 251.076 127.626C251.076 129.119 250.559 130.55 249.638 131.606C248.717 132.661 247.469 133.255 246.166 133.257Z" fill="#C2DFFF"/>
<path d="M226.132 199.885H109.192C107.886 199.885 106.633 199.292 105.71 198.236C104.786 197.18 104.267 195.748 104.267 194.255C104.267 192.761 104.786 191.329 105.71 190.273C106.633 189.217 107.886 188.624 109.192 188.624H226.132C226.778 188.624 227.419 188.77 228.016 189.053C228.614 189.336 229.157 189.751 229.614 190.273C230.071 190.796 230.434 191.417 230.682 192.1C230.929 192.783 231.056 193.515 231.056 194.255C231.056 194.994 230.929 195.726 230.682 196.41C230.434 197.093 230.071 197.713 229.614 198.236C229.157 198.759 228.614 199.174 228.016 199.457C227.419 199.74 226.778 199.885 226.132 199.885Z" fill="#C2DFFF"/>
<path d="M246.166 218.654H109.177C107.874 218.652 106.626 218.058 105.705 217.003C104.784 215.947 104.267 214.516 104.267 213.023C104.267 211.531 104.784 210.1 105.705 209.044C106.626 207.988 107.874 207.394 109.177 207.393H246.166C247.469 207.394 248.717 207.988 249.638 209.044C250.559 210.1 251.076 211.531 251.076 213.023C251.076 214.516 250.559 215.947 249.638 217.003C248.717 218.058 247.469 218.652 246.166 218.654Z" fill="#C2DFFF"/>
<path d="M226.126 285.282H109.192C107.886 285.282 106.633 284.689 105.71 283.633C104.786 282.577 104.267 281.145 104.267 279.652C104.267 278.158 104.786 276.726 105.71 275.67C106.633 274.614 107.886 274.021 109.192 274.021H226.126C226.774 274.02 227.415 274.165 228.013 274.448C228.611 274.731 229.154 275.145 229.612 275.668C230.07 276.191 230.433 276.812 230.681 277.496C230.929 278.179 231.056 278.912 231.056 279.652C231.056 280.392 230.929 281.124 230.681 281.808C230.433 282.492 230.07 283.113 229.612 283.635C229.154 284.158 228.611 284.573 228.013 284.856C227.415 285.138 226.774 285.283 226.126 285.282Z" fill="#C2DFFF"/>
<path d="M246.166 304.051H109.177C107.874 304.049 106.626 303.455 105.705 302.4C104.784 301.344 104.267 299.913 104.267 298.42C104.267 296.928 104.784 295.497 105.705 294.441C106.626 293.385 107.874 292.791 109.177 292.79H246.166C247.469 292.791 248.717 293.385 249.638 294.441C250.559 295.497 251.076 296.928 251.076 298.42C251.076 299.913 250.559 301.344 249.638 302.4C248.717 303.455 247.469 304.049 246.166 304.051Z" fill="#C2DFFF"/>
<path d="M82.7325 141.703H41.5541C40.9312 141.702 40.3339 141.421 39.8934 140.921C39.453 140.421 39.2052 139.744 39.2045 139.037V97.4473C39.2052 96.7405 39.453 96.0628 39.8934 95.563C40.3339 95.0632 40.9312 94.7821 41.5541 94.7813H82.7325C83.3554 94.7821 83.9527 95.0632 84.3932 95.563C84.8337 96.0628 85.0814 96.7405 85.0821 97.4473V139.037C85.0814 139.744 84.8337 140.421 84.3932 140.921C83.9527 141.421 83.3554 141.702 82.7325 141.703Z" fill="#1981FF"/>
<path d="M82.7325 312.497H41.5541C40.9312 312.496 40.3339 312.215 39.8934 311.715C39.453 311.215 39.2052 310.538 39.2045 309.831V268.241C39.2052 267.535 39.453 266.857 39.8934 266.357C40.3339 265.857 40.9312 265.576 41.5541 265.575H82.7325C83.3554 265.576 83.9527 265.857 84.3932 266.357C84.8337 266.857 85.0814 267.535 85.0821 268.241V309.831C85.0814 310.538 84.8337 311.215 84.3932 311.715C83.9527 312.215 83.3554 312.496 82.7325 312.497Z" fill="#1981FF"/>
<path d="M464.093 308.71L465.924 290.307L475.108 198.037L476.939 179.635C477.82 170.699 475.579 161.726 470.709 154.686C465.838 147.645 458.736 143.112 450.96 142.08L242.579 114.704C234.801 113.692 226.991 116.267 220.863 121.862C214.735 127.458 210.789 135.618 209.891 144.551L209.886 144.599L197.049 273.579L197.044 273.626C196.164 282.563 198.405 291.535 203.275 298.576C208.145 305.616 215.248 310.149 223.024 311.181L431.405 338.557C439.183 339.569 446.993 336.995 453.121 331.399C459.249 325.803 463.195 317.644 464.093 308.71Z" fill="#58A4F9"/>
<path d="M455.79 307.061L457.962 285.283L466.48 199.876L468.652 178.098C469.28 171.74 467.682 165.356 464.21 160.347C460.737 155.338 455.674 152.112 450.13 151.378L241.499 124.026C235.954 123.306 230.386 125.138 226.017 129.119C221.647 133.1 218.834 138.906 218.194 145.263L218.189 145.31L205.337 274.177L205.332 274.225C204.704 280.583 206.302 286.967 209.774 291.976C213.247 296.985 218.31 300.211 223.854 300.945L432.485 328.297C438.03 329.016 443.598 327.185 447.967 323.204C452.336 319.223 455.15 313.417 455.79 307.061Z" fill="white"/>
<path d="M421.603 190.465L305.492 175.376C304.849 175.293 304.227 175.068 303.661 174.711C303.095 174.355 302.597 173.876 302.194 173.301C301.792 172.726 301.493 172.066 301.315 171.359C301.136 170.653 301.082 169.913 301.156 169.183C301.229 168.453 301.429 167.746 301.743 167.103C302.057 166.461 302.479 165.895 302.985 165.438C303.492 164.981 304.073 164.642 304.695 164.44C305.317 164.238 305.967 164.178 306.61 164.262L422.721 179.351C424.017 179.521 425.201 180.269 426.012 181.43C426.823 182.591 427.195 184.07 427.047 185.543C426.899 187.016 426.242 188.362 425.221 189.285C424.201 190.208 422.899 190.632 421.603 190.465Z" fill="#58A4F9"/>
<path d="M439.955 212.048L303.818 194.219C303.176 194.136 302.555 193.909 301.99 193.55C301.425 193.192 300.927 192.709 300.525 192.13C300.122 191.551 299.824 190.887 299.646 190.176C299.468 189.464 299.414 188.72 299.487 187.985C299.561 187.25 299.76 186.538 300.074 185.891C300.387 185.244 300.809 184.675 301.315 184.215C301.821 183.755 302.401 183.413 303.022 183.21C303.643 183.007 304.293 182.946 304.935 183.031L441.072 200.86C441.714 200.944 442.334 201.172 442.899 201.53C443.463 201.889 443.961 202.372 444.362 202.951C444.764 203.53 445.062 204.193 445.24 204.904C445.418 205.615 445.472 206.359 445.398 207.094C445.325 207.828 445.126 208.539 444.813 209.186C444.499 209.833 444.078 210.402 443.573 210.862C443.067 211.322 442.488 211.664 441.867 211.867C441.246 212.071 440.597 212.132 439.955 212.048Z" fill="#58A4F9"/>
<path d="M435.789 249.585L235.402 223.306C234.11 223.135 232.93 222.383 232.121 221.215C231.312 220.046 230.94 218.557 231.088 217.075C231.236 215.592 231.891 214.238 232.909 213.309C233.927 212.38 235.225 211.953 236.518 212.121L436.904 238.399C437.545 238.483 438.165 238.71 438.729 239.068C439.293 239.427 439.791 239.909 440.192 240.488C440.594 241.067 440.892 241.731 441.069 242.442C441.247 243.153 441.301 243.897 441.228 244.632C441.154 245.367 440.955 246.078 440.642 246.725C440.329 247.372 439.908 247.941 439.403 248.401C438.898 248.861 438.319 249.203 437.699 249.406C437.078 249.609 436.429 249.67 435.789 249.585H435.789Z" fill="#C2DFFF"/>
<path d="M434.937 269.292L232.921 242.33C231.622 242.155 230.436 241.386 229.623 240.191C228.811 238.996 228.437 237.473 228.586 235.957C228.734 234.441 229.392 233.056 230.416 232.105C231.439 231.155 232.743 230.718 234.042 230.89L436.058 257.852C437.357 258.027 438.543 258.797 439.356 259.992C440.169 261.187 440.542 262.71 440.393 264.226C440.245 265.742 439.587 267.127 438.564 268.077C437.54 269.027 436.236 269.464 434.937 269.292Z" fill="#C2DFFF"/>
<path d="M432.44 287.123L231.259 260.845C230.615 260.762 229.993 260.534 229.426 260.176C228.86 259.817 228.36 259.335 227.957 258.756C227.554 258.177 227.255 257.513 227.076 256.802C226.898 256.091 226.844 255.347 226.918 254.612C226.991 253.877 227.191 253.166 227.505 252.519C227.819 251.872 228.242 251.303 228.749 250.843C229.257 250.383 229.838 250.041 230.461 249.838C231.084 249.635 231.735 249.574 232.379 249.659L433.56 275.938C434.857 276.109 436.042 276.861 436.854 278.03C437.666 279.198 438.039 280.687 437.891 282.169C437.743 283.652 437.085 285.006 436.063 285.935C435.041 286.864 433.738 287.291 432.44 287.123V287.123Z" fill="#C2DFFF"/>
<path d="M430.778 305.891L229.567 279.587C228.274 279.416 227.092 278.666 226.283 277.5C225.473 276.334 225.101 274.848 225.249 273.369C225.397 271.89 226.053 270.539 227.071 269.612C228.09 268.685 229.39 268.259 230.683 268.426L431.895 294.73C432.536 294.813 433.157 295.04 433.722 295.398C434.287 295.755 434.784 296.237 435.186 296.814C435.588 297.392 435.886 298.054 436.064 298.764C436.242 299.473 436.296 300.216 436.223 300.949C436.149 301.683 435.95 302.392 435.637 303.037C435.323 303.683 434.902 304.251 434.396 304.71C433.891 305.169 433.311 305.509 432.69 305.712C432.069 305.915 431.42 305.975 430.778 305.891Z" fill="#C2DFFF"/>
<path d="M276.789 199.868L235.653 194.404C235.03 194.32 234.462 193.953 234.072 193.384C233.683 192.814 233.503 192.088 233.574 191.365L237.761 148.827C237.833 148.105 238.149 147.444 238.639 146.992C239.129 146.539 239.754 146.331 240.377 146.412L281.513 151.877C282.135 151.96 282.704 152.327 283.093 152.897C283.483 153.466 283.663 154.192 283.592 154.915L279.405 197.453C279.333 198.176 279.017 198.836 278.527 199.289C278.037 199.742 277.412 199.95 276.789 199.868Z" fill="#1981FF"/>
<path d="M466.89 178.259C466.684 179.176 466.658 180.132 466.816 181.062C466.974 181.991 467.311 182.87 467.804 183.637C468.297 184.403 468.934 185.04 469.669 185.5C470.404 185.96 471.221 186.234 472.06 186.302L476.221 200.33L484.423 199.568L478.3 179.85C478.308 178.258 477.796 176.717 476.86 175.521C475.924 174.324 474.631 173.555 473.224 173.359C471.818 173.163 470.396 173.553 469.229 174.456C468.062 175.359 467.229 176.712 466.89 178.259Z" fill="#FFB8B8"/>
<path d="M473.172 270.124C474.134 271.116 475.311 271.806 476.585 272.123C477.859 272.441 479.186 272.375 480.43 271.932C481.675 271.49 482.793 270.686 483.673 269.602C484.552 268.519 485.162 267.194 485.441 265.76L491.937 232.311C493.048 226.591 492.786 220.642 491.179 215.073L483.576 188.729C483.467 188.351 483.286 188.004 483.047 187.712C482.807 187.419 482.514 187.188 482.188 187.035C481.862 186.881 481.51 186.809 481.156 186.822C480.803 186.836 480.456 186.935 480.14 187.113L475.178 189.905C474.664 190.194 474.256 190.676 474.026 191.268C473.796 191.86 473.758 192.523 473.919 193.143L474.419 195.077C478.579 211.156 478.798 228.199 475.051 244.406L471.01 261.886C470.671 263.35 470.694 264.89 471.075 266.342C471.455 267.793 472.181 269.1 473.172 270.124Z" fill="#1981FF"/>
<path d="M447.178 434.674L440.158 434.674L436.819 404.244L447.18 404.245L447.178 434.674Z" fill="#FFB8B8"/>
<path d="M435.143 432.419H448.682V441.999H426.619C426.619 440.741 426.839 439.495 427.268 438.333C427.696 437.171 428.324 436.115 429.116 435.225C429.907 434.336 430.847 433.63 431.881 433.149C432.915 432.667 434.024 432.419 435.143 432.419Z" fill="#2F2E41"/>
<path d="M485.016 434.674L477.996 434.674L474.658 404.244L485.018 404.245L485.016 434.674Z" fill="#FFB8B8"/>
<path d="M472.982 432.419H486.52V441.999H464.457C464.457 440.741 464.678 439.495 465.106 438.333C465.535 437.171 466.163 436.115 466.954 435.225C467.746 434.336 468.685 433.63 469.719 433.149C470.754 432.667 471.862 432.419 472.982 432.419Z" fill="#2F2E41"/>
<path d="M464.457 218.355C472.786 218.355 479.539 210.767 479.539 201.406C479.539 192.046 472.786 184.458 464.457 184.458C456.128 184.458 449.375 192.046 449.375 201.406C449.375 210.767 456.128 218.355 464.457 218.355Z" fill="#FFB8B8"/>
<path d="M412.888 311.94C412.993 311.002 413.28 310.1 413.729 309.3C414.178 308.5 414.777 307.82 415.485 307.308C416.193 306.796 416.992 306.465 417.826 306.338C418.66 306.211 419.509 306.291 420.313 306.572L428.741 295.217L436.131 299.29L424.028 315.138C423.517 316.624 422.54 317.848 421.281 318.578C420.021 319.308 418.567 319.494 417.194 319.099C415.821 318.705 414.624 317.759 413.83 316.439C413.037 315.12 412.701 313.519 412.888 311.94Z" fill="#FFB8B8"/>
<path d="M468.129 218.355C470.399 218.41 472.654 217.924 474.745 216.93C476.836 215.937 478.716 214.457 480.262 212.588C481.808 210.719 482.984 208.504 483.714 206.088C484.444 203.672 484.71 201.11 484.496 198.57C484.282 196.03 483.592 193.569 482.471 191.35C481.351 189.131 479.825 187.204 477.994 185.695C476.164 184.186 474.07 183.129 471.85 182.594C469.63 182.059 467.334 182.058 465.114 182.592C461.798 180.328 457.941 178.806 454.077 179.193C450.212 179.58 446.39 182.159 444.945 186.205C443.499 190.252 445.052 195.586 448.646 197.231C450.949 198.285 453.551 197.774 456.01 197.349C458.468 196.924 461.15 196.646 463.29 198.072C465.43 199.497 466.392 203.32 464.475 205.102C463.459 206.085 462.734 207.391 462.396 208.849C462.057 210.306 462.122 211.844 462.581 213.259C463.544 216.058 466.173 218.307 468.129 218.355Z" fill="#2F2E41"/>
<path d="M486.841 311.27L489.516 425.366C489.525 425.746 489.464 426.124 489.337 426.477C489.209 426.829 489.019 427.148 488.776 427.414C488.534 427.68 488.245 427.886 487.929 428.021C487.612 428.155 487.274 428.214 486.936 428.195L478.123 427.69C477.561 427.657 477.025 427.409 476.606 426.986C476.187 426.563 475.911 425.991 475.822 425.366L465.34 351.261C465.295 350.944 465.153 350.654 464.939 350.442C464.724 350.229 464.451 350.108 464.165 350.098C463.88 350.088 463.6 350.19 463.374 350.387C463.148 350.584 462.991 350.863 462.928 351.176L448.739 422.527C448.663 422.908 448.516 423.267 448.308 423.58C448.099 423.893 447.834 424.152 447.53 424.341C447.225 424.53 446.889 424.644 446.542 424.676C446.196 424.708 445.847 424.657 445.519 424.526L436.773 423.925C436.267 423.723 435.834 423.34 435.54 422.835C435.246 422.33 435.108 421.73 435.146 421.128L442.781 310.19L486.841 311.27Z" fill="#2F2E41"/>
<path d="M491.134 257.079C492.61 239.789 481.298 224.15 465.881 222.92C459.238 222.39 448.925 222.2 445.526 231.985C435.285 261.46 453.212 260.744 447.036 286.281C440.859 311.819 435.404 313.282 443.879 315.126C452.354 316.97 490.465 327.856 488.9 309.882C487.938 298.833 489.663 274.325 491.134 257.079Z" fill="#1981FF"/>
<path d="M448.568 228.987C449.785 228.457 451.105 228.298 452.394 228.525C453.684 228.752 454.897 229.357 455.912 230.279C456.927 231.202 457.707 232.409 458.174 233.778C458.642 235.148 458.779 236.632 458.573 238.08L453.759 271.888C452.936 277.669 450.761 283.1 447.456 287.626L431.823 309.035C431.598 309.342 431.317 309.591 430.999 309.765C430.682 309.939 430.334 310.034 429.98 310.043C429.627 310.052 429.275 309.975 428.951 309.818C428.626 309.66 428.335 309.426 428.099 309.13L424.385 304.496C424.001 304.016 423.778 303.4 423.756 302.755C423.734 302.109 423.914 301.476 424.265 300.964L425.359 299.369C434.453 286.105 440.191 270.327 441.965 253.701L443.879 235.77C444.039 234.268 444.56 232.843 445.386 231.648C446.212 230.453 447.312 229.533 448.568 228.987Z" fill="#1981FF"/>
</g>
<defs>
<clipPath id="clip0_107_196">
<rect width="518" height="442" fill="white"/>
</clipPath>
</defs>
</svg>
