<svg width="548" height="442" viewBox="0 0 548 321" fill="none" xmlns="http://www.w3.org/2000/svg">
<path d="M328.72 282H44.2799C42.6149 281.998 41.0187 281.385 39.8414 280.294C38.6642 279.204 38.0019 277.726 38 276.184V122.816C38.0019 121.274 38.6641 119.796 39.8414 118.705C41.0187 117.615 42.6149 117.002 44.2799 117H328.72C330.385 117.002 331.981 117.615 333.159 118.706C334.336 119.796 334.998 121.274 335 122.816V276.184C334.998 277.726 334.336 279.204 333.158 280.294C331.981 281.385 330.385 281.998 328.72 282Z" fill="#E6E6E6"/>
<path d="M347 303H27V108.451C27.0021 106.741 27.7425 105.101 29.0587 103.892C30.3749 102.682 32.1594 102.002 34.0208 102H339.979C341.841 102.002 343.625 102.682 344.941 103.892C346.258 105.101 346.998 106.741 347 108.451V303ZM28.4781 301.642H345.522V108.451C345.52 107.101 344.936 105.806 343.897 104.851C342.858 103.897 341.449 103.36 339.979 103.358H34.0208C32.5513 103.36 31.1424 103.897 30.1033 104.851C29.0641 105.806 28.4797 107.101 28.4781 108.451V301.642Z" fill="#2F2E41"/>
<path d="M187 112C188.657 112 190 110.881 190 109.5C190 108.119 188.657 107 187 107C185.343 107 184 108.119 184 109.5C184 110.881 185.343 112 187 112Z" fill="#E6E6E6"/>
<path d="M257.726 250H115.274C113.61 249.998 112.016 249.384 110.84 248.293C109.664 247.201 109.002 245.722 109 244.178V155.822C109.002 154.278 109.664 152.799 110.84 151.707C112.016 150.616 113.61 150.002 115.274 150H257.726C259.389 150.002 260.984 150.616 262.16 151.707C263.336 152.799 263.998 154.278 264 155.822V244.178C263.998 245.722 263.336 247.201 262.16 248.293C260.984 249.384 259.389 249.998 257.726 250Z" fill="white"/>
<path d="M139 188C137.813 188 136.653 187.677 135.667 187.073C134.68 186.469 133.911 185.61 133.457 184.605C133.003 183.6 132.884 182.494 133.115 181.427C133.347 180.36 133.918 179.38 134.757 178.611C135.596 177.842 136.666 177.318 137.829 177.106C138.993 176.893 140.2 177.002 141.296 177.419C142.392 177.835 143.33 178.54 143.989 179.444C144.648 180.349 145 181.412 145 182.5C144.998 183.958 144.365 185.356 143.241 186.387C142.116 187.418 140.591 187.998 139 188Z" fill="#CCCCCC"/>
<path d="M139 205C137.813 205 136.653 204.677 135.667 204.073C134.68 203.469 133.911 202.61 133.457 201.605C133.003 200.6 132.884 199.494 133.115 198.427C133.347 197.36 133.918 196.38 134.757 195.611C135.596 194.842 136.666 194.318 137.829 194.106C138.993 193.893 140.2 194.002 141.296 194.419C142.392 194.835 143.33 195.54 143.989 196.444C144.648 197.349 145 198.412 145 199.5C144.998 200.958 144.365 202.356 143.241 203.387C142.116 204.418 140.591 204.998 139 205Z" fill="#C2DFFF"/>
<path d="M139 223C137.813 223 136.653 222.677 135.667 222.073C134.68 221.469 133.911 220.61 133.457 219.605C133.003 218.6 132.884 217.494 133.115 216.427C133.347 215.36 133.918 214.38 134.757 213.611C135.596 212.842 136.666 212.318 137.829 212.106C138.993 211.893 140.2 212.002 141.296 212.419C142.392 212.835 143.33 213.54 143.989 214.444C144.648 215.349 145 216.412 145 217.5C144.998 218.958 144.365 220.356 143.241 221.387C142.116 222.418 140.591 222.998 139 223Z" fill="#C2DFFF"/>
<path d="M166.783 178C165.514 178 164.298 178.474 163.401 179.318C162.504 180.162 162 181.307 162 182.5C162 183.693 162.504 184.838 163.401 185.682C164.298 186.526 165.514 187 166.783 187H235.217C236.486 187 237.702 186.526 238.599 185.682C239.496 184.838 240 183.693 240 182.5C240 181.307 239.496 180.162 238.599 179.318C237.702 178.474 236.486 178 235.217 178H166.783Z" fill="#CCCCCC"/>
<path d="M166.783 195C165.514 195 164.298 195.474 163.401 196.318C162.504 197.162 162 198.307 162 199.5C162 200.693 162.504 201.838 163.401 202.682C164.298 203.526 165.514 204 166.783 204H235.217C236.486 204 237.702 203.526 238.599 202.682C239.496 201.838 240 200.693 240 199.5C240 198.307 239.496 197.162 238.599 196.318C237.702 195.474 236.486 195 235.217 195H166.783Z" fill="#C2DFFF"/>
<path d="M166.783 213C165.514 213 164.298 213.474 163.401 214.318C162.504 215.162 162 216.307 162 217.5C162 218.693 162.504 219.838 163.401 220.682C164.298 221.526 165.514 222 166.783 222H235.217C236.486 222 237.702 221.526 238.599 220.682C239.496 219.838 240 218.693 240 217.5C240 216.307 239.496 215.162 238.599 214.318C237.702 213.474 236.486 213 235.217 213H166.783Z" fill="#C2DFFF"/>
<path d="M517.792 311L507.463 310.827L503.217 271L518.462 271.256L517.792 311Z" fill="#FFB8B8"/>
<path d="M500.375 307.765L520.189 308.093L519.979 320.413L487.689 319.877C487.717 318.259 488.067 316.662 488.719 315.178C489.371 313.694 490.314 312.351 491.491 311.226C492.669 310.102 494.06 309.217 495.584 308.623C497.108 308.029 498.736 307.737 500.375 307.765Z" fill="#2F2E41"/>
<path d="M415.699 311.846L406.027 308.265L416.525 272.433L430.801 277.72L415.699 311.846Z" fill="#FFB8B8"/>
<path d="M400.753 302.821L419.122 309.705L414.44 320.413L384.505 309.194C385.747 306.354 388.156 304.087 391.203 302.892C394.25 301.697 397.685 301.671 400.753 302.821Z" fill="#2F2E41"/>
<path d="M450.582 163.569L420.476 242.277L407.932 296.958L421.312 303.586L482.36 185.939L504.939 304H518.32C518.32 304 524.438 163.972 515.525 153L450.582 163.569Z" fill="#2F2E41"/>
<path d="M412.697 250C425.853 250 436.518 239.479 436.518 226.5C436.518 213.521 425.853 203 412.697 203C399.54 203 388.875 213.521 388.875 226.5C388.875 239.479 399.54 250 412.697 250Z" fill="#1981FF"/>
<path d="M410.637 242.404L403.168 233.411L407.512 230.248L411.048 234.506L422.994 222.697L426.989 226.241L410.637 242.404Z" fill="white"/>
<path d="M465.103 55C480.364 55 492.736 42.9117 492.736 28C492.736 13.0883 480.364 1 465.103 1C449.842 1 437.471 13.0883 437.471 28C437.471 42.9117 449.842 55 465.103 55Z" fill="#2F2E41"/>
<path d="M426.725 214.039C427.898 213.46 428.929 212.634 429.744 211.618C430.56 210.602 431.141 209.421 431.447 208.159C431.752 206.896 431.775 205.582 431.513 204.31C431.25 203.038 430.71 201.838 429.93 200.795L450.811 86.2545L431.325 86L416.824 199.266C415.144 200.682 414.046 202.659 413.738 204.824C413.43 206.989 413.934 209.19 415.155 211.011C416.375 212.832 418.227 214.146 420.359 214.704C422.492 215.262 424.757 215.025 426.725 214.039H426.725Z" fill="#FFB8B8"/>
<path d="M546.517 190.926C547.26 189.816 547.739 188.557 547.919 187.241C548.1 185.925 547.977 184.586 547.559 183.323C547.142 182.06 546.441 180.905 545.508 179.943C544.575 178.981 543.433 178.237 542.168 177.765L504.538 88.1153C503.617 85.9212 502.22 83.9503 500.443 82.3397C498.667 80.729 496.554 79.5173 494.252 78.7889C491.949 78.0604 489.513 77.8326 487.112 78.1215C484.711 78.4103 482.402 79.2087 480.348 80.4613L530.189 183.471C529.547 185.529 529.684 187.745 530.577 189.71C531.47 191.676 533.057 193.259 535.046 194.167C537.035 195.075 539.291 195.247 541.4 194.652C543.508 194.056 545.325 192.733 546.517 190.926V190.926Z" fill="#FFB8B8"/>
<path d="M465.579 59C476.893 59 486.065 49.8218 486.065 38.5C486.065 27.1782 476.893 18 465.579 18C454.265 18 445.093 27.1782 445.093 38.5C445.093 49.8218 454.265 59 465.579 59Z" fill="#FFB8B8"/>
<path d="M440.154 70.4642C452.086 65.582 472.685 60.7569 495.558 71.2735C498.235 72.4999 500.618 74.2688 502.55 76.4641C504.482 78.6594 505.92 81.2314 506.77 84.0114L516.557 116.187L503.923 128.604L515.714 154.267C515.714 154.267 470.654 181.171 450.44 164.615L438.228 121.982L422.225 117.843L427.684 85.9626C428.26 82.5538 429.706 79.3441 431.887 76.6337C434.068 73.9233 436.912 71.8006 440.154 70.4642Z" fill="#1981FF"/>
<path d="M446.046 23.4644C454.197 28.2645 463.386 31.1855 472.898 32L470.068 28.7282C472.129 29.4633 474.297 29.8787 476.493 29.9591C477.592 29.9898 478.684 29.7715 479.68 29.3217C480.676 28.872 481.549 28.2032 482.229 27.3692C482.784 26.5031 483.114 25.5203 483.19 24.5046C483.266 23.489 483.087 22.4706 482.667 21.5363C481.804 19.6729 480.462 18.0533 478.767 16.8319C475.763 14.5394 472.218 12.9995 468.447 12.3494C464.676 11.6993 460.798 11.9592 457.157 13.106C454.659 13.8261 452.422 15.2104 450.702 17.1002C449.857 18.0522 449.269 19.1918 448.993 20.4167C448.717 21.6416 448.76 22.9136 449.119 24.1184" fill="#2F2E41"/>
<path d="M442.534 4.83368C442.198 1.35798 437.871 -0.781795 434.487 0.268106C431.102 1.31801 428.881 4.67075 428.209 8.09902C427.886 9.54282 427.855 11.0352 428.12 12.4905C428.384 13.9459 428.937 15.3357 429.749 16.5801C430.587 17.8088 431.767 18.7747 433.147 19.363C434.527 19.9514 436.05 20.1375 437.535 19.8991C440.882 19.1972 443.201 15.9816 443.864 12.6783C444.528 9.37505 443.869 5.96943 443.211 2.66508" fill="#2F2E41"/>
<path d="M499.705 6.83368C499.369 3.35798 495.042 1.2182 491.657 2.26811C488.273 3.31801 486.051 6.67075 485.38 10.099C485.056 11.5428 485.026 13.0352 485.29 14.4905C485.555 15.9459 486.108 17.3357 486.919 18.5801C487.758 19.8088 488.937 20.7747 490.318 21.363C491.698 21.9514 493.221 22.1375 494.705 21.8991C498.052 21.1972 500.371 17.9816 501.035 14.6783C501.698 11.3751 501.04 7.96943 500.382 4.66508" fill="#2F2E41"/>
<path d="M351.95 294.773H339.024V292.727C339.024 292.004 338.712 291.31 338.158 290.799C337.604 290.287 336.853 290 336.069 290H320.558C319.775 290 319.023 290.287 318.469 290.799C317.915 291.31 317.604 292.004 317.604 292.727V294.773H315.388V292.727C315.388 292.004 315.077 291.31 314.523 290.799C313.969 290.287 313.217 290 312.434 290H296.923C296.139 290 295.388 290.287 294.834 290.799C294.28 291.31 293.968 292.004 293.968 292.727V294.773H291.752V292.727C291.752 292.004 291.441 291.31 290.887 290.799C290.333 290.287 289.582 290 288.798 290H273.287C272.504 290 271.752 290.287 271.198 290.799C270.644 291.31 270.333 292.004 270.333 292.727V294.773H268.117V292.727C268.117 292.004 267.806 291.31 267.251 290.799C266.697 290.287 265.946 290 265.162 290H249.651C248.868 290 248.116 290.287 247.562 290.799C247.008 291.31 246.697 292.004 246.697 292.727V294.773H244.481V292.727C244.481 292.004 244.17 291.31 243.616 290.799C243.062 290.287 242.31 290 241.527 290H226.016C225.232 290 224.481 290.287 223.927 290.799C223.373 291.31 223.061 292.004 223.061 292.727V294.773H220.846V292.727C220.846 292.004 220.534 291.31 219.98 290.799C219.426 290.287 218.675 290 217.891 290H202.38C201.597 290 200.845 290.287 200.291 290.799C199.737 291.31 199.426 292.004 199.426 292.727V294.773H197.21V292.727C197.21 292.004 196.899 291.31 196.345 290.799C195.79 290.287 195.039 290 194.255 290H178.745C177.961 290 177.21 290.287 176.655 290.799C176.101 291.31 175.79 292.004 175.79 292.727V294.773H173.574V292.727C173.574 292.004 173.263 291.31 172.709 290.799C172.155 290.287 171.403 290 170.62 290H155.109C154.325 290 153.574 290.287 153.02 290.799C152.466 291.31 152.154 292.004 152.154 292.727V294.773H149.939V292.727C149.939 292.004 149.627 291.31 149.073 290.799C148.519 290.287 147.768 290 146.984 290H131.473C130.69 290 129.938 290.287 129.384 290.799C128.83 291.31 128.519 292.004 128.519 292.727V294.773H126.303V292.727C126.303 292.004 125.992 291.31 125.438 290.799C124.884 290.287 124.132 290 123.349 290H107.838C107.054 290 106.303 290.287 105.749 290.799C105.194 291.31 104.883 292.004 104.883 292.727V294.773H102.667V292.727C102.667 292.004 102.356 291.31 101.802 290.799C101.248 290.287 100.496 290 99.7129 290H84.202C83.4184 290 82.6669 290.287 82.1129 290.799C81.5588 291.31 81.2475 292.004 81.2475 292.727V294.773H79.0317V292.727C79.0317 292.004 78.7204 291.31 78.1663 290.799C77.6123 290.287 76.8608 290 76.0772 290H60.5663C59.7828 290 59.0313 290.287 58.4772 290.799C57.9231 291.31 57.6119 292.004 57.6119 292.727V294.773H55.396V292.727C55.396 292.004 55.0848 291.31 54.5307 290.799C53.9766 290.287 53.2252 290 52.4416 290H36.9307C36.1471 290 35.3956 290.287 34.8416 290.799C34.2875 291.31 33.9762 292.004 33.9762 292.727V294.773H21.0504C15.4675 294.773 10.1133 296.82 6.16554 300.464C2.21781 304.108 0 309.051 0 314.205V314.205C0 315.742 0.661454 317.216 1.83885 318.303C3.01624 319.389 4.61313 320 6.27822 320H366.722C368.387 320 369.984 319.389 371.161 318.303C372.339 317.216 373 315.742 373 314.205V314.205C373 309.051 370.782 304.108 366.834 300.464C362.887 296.82 357.532 294.773 351.95 294.773Z" fill="#3F3D56"/>
</svg>
