<svg width="742" height="667" viewBox="0 0 742 667" fill="none" xmlns="http://www.w3.org/2000/svg">
<path d="M189.582 555.081C189.317 555.081 189.063 554.976 188.875 554.788C188.688 554.601 188.583 554.346 188.583 554.081C188.583 553.814 188.687 553.557 188.874 553.367C189.061 553.176 189.315 553.066 189.582 553.061L349.917 552.12C350.182 552.124 350.436 552.231 350.625 552.417C350.815 552.603 350.926 552.854 350.936 553.12C350.939 553.253 350.915 553.385 350.866 553.509C350.817 553.632 350.743 553.745 350.65 553.84C350.557 553.935 350.446 554.01 350.324 554.062C350.201 554.113 350.069 554.14 349.936 554.14L189.602 555.081H189.582Z" fill="#FF9E80"/>
<path d="M432.603 426.354H376.048V537.507H432.603V426.354Z" fill="#1981FF"/>
<path d="M489.06 530.152H315.67C309.553 530.152 304.594 535.113 304.594 541.234V565.026C304.594 571.146 309.553 576.108 315.67 576.108H489.06C495.177 576.108 500.136 571.146 500.136 565.026V541.234C500.136 535.113 495.177 530.152 489.06 530.152Z" fill="#1981FF"/>
<path d="M655.942 121.078H152.728C142.324 121.078 133.89 129.517 133.89 139.927V451.636C133.89 462.046 142.324 470.485 152.728 470.485H655.942C666.346 470.485 674.781 462.046 674.781 451.636V139.927C674.781 129.517 666.346 121.078 655.942 121.078Z" fill="#1981FF"/>
<path d="M631.007 146.655H177.664C168.937 146.655 161.863 153.733 161.863 162.464V404.817C161.863 413.548 168.937 420.626 177.664 420.626H631.007C639.733 420.626 646.807 413.548 646.807 404.817V162.464C646.807 153.733 639.733 146.655 631.007 146.655Z" fill="url(#paint0_linear_201_53)"/>
<path d="M404.335 453.363C410.149 453.363 414.862 448.647 414.862 442.83C414.862 437.013 410.149 432.297 404.335 432.297C398.521 432.297 393.808 437.013 393.808 442.83C393.808 448.647 398.521 453.363 404.335 453.363Z" fill="white"/>
<path d="M219.987 575.951H116.09C114.613 575.951 113.151 575.66 111.787 575.094C110.423 574.528 109.184 573.698 108.14 572.652C107.097 571.606 106.27 570.365 105.707 568.999C105.143 567.634 104.855 566.17 104.857 564.692V563.594C104.857 556.255 106.304 548.988 109.114 542.209C111.923 535.43 116.042 529.272 121.233 524.087C126.424 518.902 132.586 514.793 139.366 511.993C146.146 509.194 153.411 507.759 160.746 507.772H175.527C190.323 507.772 204.514 513.653 214.977 524.122C225.44 534.591 231.318 548.789 231.318 563.594V564.692C231.32 566.178 231.028 567.65 230.459 569.022C229.889 570.394 229.054 571.64 228 572.687C226.946 573.734 225.695 574.562 224.32 575.122C222.945 575.682 221.472 575.964 219.987 575.951Z" fill="#1981FF"/>
<path d="M168.038 546.02C167.906 546.02 167.774 545.993 167.651 545.942C167.529 545.89 167.418 545.815 167.325 545.72C167.231 545.625 167.158 545.512 167.109 545.389C167.06 545.265 167.036 545.133 167.039 545V508.518C167.1 508.304 167.228 508.117 167.405 507.984C167.582 507.85 167.797 507.778 168.019 507.778C168.24 507.778 168.456 507.85 168.633 507.984C168.81 508.117 168.938 508.304 168.999 508.518V545C168.999 545.261 168.9 545.511 168.722 545.701C168.543 545.891 168.298 546.005 168.038 546.02Z" fill="#A76FA8"/>
<path d="M178.389 512.401H157.786C156.865 512.254 156.026 511.783 155.421 511.073C154.816 510.363 154.483 509.46 154.483 508.527C154.483 507.594 154.816 506.691 155.421 505.981C156.026 505.271 156.865 504.8 157.786 504.653H178.389C179.31 504.8 180.148 505.271 180.754 505.981C181.359 506.691 181.692 507.594 181.692 508.527C181.692 509.46 181.359 510.363 180.754 511.073C180.148 511.783 179.31 512.254 178.389 512.401Z" fill="#B780BA"/>
<path d="M228.044 546.02H108.033C107.82 545.959 107.633 545.83 107.499 545.653C107.366 545.476 107.294 545.261 107.294 545.039C107.294 544.817 107.366 544.602 107.499 544.425C107.633 544.248 107.82 544.119 108.033 544.058H228.044C228.257 544.119 228.444 544.248 228.578 544.425C228.711 544.602 228.783 544.817 228.783 545.039C228.783 545.261 228.711 545.476 228.578 545.653C228.444 545.83 228.257 545.959 228.044 546.02Z" fill="#A76FA8"/>
<path d="M464.125 565.242H372.617C372.404 565.181 372.217 565.052 372.083 564.875C371.95 564.698 371.878 564.483 371.878 564.261C371.878 564.039 371.95 563.824 372.083 563.647C372.217 563.47 372.404 563.341 372.617 563.28H464.125C464.338 563.341 464.525 563.47 464.659 563.647C464.792 563.824 464.864 564.039 464.864 564.261C464.864 564.483 464.792 564.698 464.659 564.875C464.525 565.052 464.338 565.181 464.125 565.242Z" fill="white"/>
<path d="M143.221 263.674C142.95 263.674 142.691 263.566 142.5 263.375C142.309 263.184 142.201 262.924 142.201 262.654V146.655C142.262 146.442 142.391 146.255 142.568 146.121C142.745 145.988 142.96 145.916 143.182 145.916C143.403 145.916 143.619 145.988 143.796 146.121C143.972 146.255 144.101 146.442 144.162 146.655V262.654C144.167 262.912 144.072 263.163 143.897 263.353C143.721 263.544 143.479 263.658 143.221 263.674Z" fill="white"/>
<path d="M660.627 411.702V279.09C660.688 278.877 660.817 278.69 660.994 278.556C661.17 278.423 661.386 278.351 661.607 278.351C661.829 278.351 662.044 278.423 662.221 278.556C662.398 278.69 662.527 278.877 662.588 279.09V411.702C662.527 411.915 662.398 412.103 662.221 412.236C662.044 412.369 661.829 412.442 661.607 412.442C661.386 412.442 661.17 412.369 660.994 412.236C660.817 412.103 660.688 411.915 660.627 411.702Z" fill="#FFEEEB"/>
<path d="M546.929 445.046C546.929 445.046 547.184 400.796 564.297 396.54C581.411 392.284 584.175 404.68 584.175 404.68C584.175 404.68 589.899 404.19 591.232 413.859C592.565 423.529 589.644 448.91 589.644 448.91L546.929 445.046Z" fill="black"/>
<path d="M543.224 448.125C543.224 448.125 539.303 433.905 569.002 432.787C598.701 431.669 593.663 448.125 593.663 448.125L567.257 455.049L543.224 448.125Z" fill="#A76FA8"/>
<path d="M508.252 492.512C508.252 492.512 527.855 448.773 548.281 442.888C568.708 437.004 545.38 497.278 545.38 497.278L508.252 492.512Z" fill="#F789C8"/>
<path d="M585.723 445.046C585.723 445.046 620.499 451.499 629.007 483.254C637.515 515.01 589.801 530.191 589.801 530.191L585.723 445.046Z" fill="#F789C8"/>
<path d="M606.13 582.992L605.033 596.781L634.084 599.037V585.248L606.13 582.992Z" fill="white"/>
<path d="M590.056 526.327C590.056 526.327 627.165 484.706 663.078 493.827C698.991 502.947 646.317 590.269 646.317 590.269H594.133L595.937 576.539L536.578 577.912L544.145 510.518L590.056 526.327Z" fill="#5FA9F3"/>
<path d="M549.281 563.594H566.826L559.2 593.133H548.026L549.281 563.594Z" fill="white"/>
<path d="M515.72 527.857C515.72 527.857 450.148 545.157 446.325 570.223C442.503 595.29 489.452 606.176 511.408 607.745C524.97 608.684 538.581 608.684 552.143 607.745V518.756L515.72 527.857Z" fill="#5FA9F3"/>
<path d="M530.286 527.857C530.286 527.857 532.912 449.106 548.281 442.888C565.081 436.102 593.467 444.399 598.779 454.932C604.092 465.464 590.115 526.327 590.115 526.327C590.115 526.327 558.887 533.879 530.286 527.857Z" fill="#F789C8"/>
<path d="M577.333 431.14L577.039 443.987C577.039 443.987 574.648 447.635 567.12 448.086C561.513 448.42 559.573 447.106 559.573 447.106L560.494 440.613L561.396 434.278L575.118 431.591L577.333 431.14Z" fill="#F48462"/>
<path d="M575.04 431.512C574.973 431.942 574.841 432.359 574.648 432.748C571.629 439.103 563.729 440.319 560.494 440.594L561.396 434.258L575.04 431.512Z" fill="black"/>
<path d="M559.2 404.915C559.2 404.915 552.084 420.881 554.554 429.904C557.024 438.926 565.219 437.553 570.119 435.788C572.905 434.9 575.398 433.273 577.333 431.08C578.724 431.504 580.213 431.475 581.586 430.999C582.959 430.524 584.147 429.625 584.979 428.432C588.076 424.196 586.233 419.292 583.626 418.155C582.67 417.873 581.667 417.793 580.678 417.918C579.69 418.042 578.738 418.37 577.882 418.88L580.352 414.232C580.352 414.232 570.276 390.577 559.2 404.915Z" fill="#F48462"/>
<path d="M560.298 425.373C560.178 425.385 560.057 425.359 559.951 425.299C559.846 425.24 559.762 425.149 559.71 425.04C559.301 423.864 559.137 422.617 559.228 421.376C559.32 420.134 559.664 418.925 560.239 417.822C560.31 417.69 560.429 417.59 560.571 417.542C560.713 417.495 560.868 417.504 561.004 417.567C561.132 417.641 561.228 417.761 561.271 417.903C561.315 418.045 561.304 418.198 561.239 418.331C560.254 420.262 560.071 422.504 560.729 424.569C560.762 424.635 560.781 424.708 560.785 424.782C560.788 424.856 560.777 424.931 560.751 425C560.726 425.07 560.686 425.134 560.635 425.188C560.584 425.242 560.523 425.285 560.455 425.314L560.298 425.373Z" fill="black"/>
<path d="M578.568 426.491C578.426 426.492 578.287 426.444 578.176 426.353C578.074 426.244 578.018 426.101 578.018 425.951C578.018 425.802 578.074 425.658 578.176 425.549L582.528 420.94C582.635 420.833 582.779 420.773 582.93 420.773C583.081 420.773 583.225 420.833 583.332 420.94C583.384 420.991 583.425 421.052 583.454 421.119C583.482 421.187 583.497 421.259 583.497 421.332C583.497 421.405 583.482 421.478 583.454 421.545C583.425 421.612 583.384 421.673 583.332 421.724L578.98 426.334C578.925 426.386 578.861 426.427 578.79 426.454C578.719 426.481 578.644 426.493 578.568 426.491Z" fill="black"/>
<path d="M583.175 425.275L580.078 424.804C579.93 424.78 579.798 424.698 579.709 424.577C579.621 424.456 579.585 424.305 579.607 424.157C579.617 424.082 579.641 424.009 579.679 423.944C579.717 423.878 579.768 423.821 579.828 423.776C579.888 423.73 579.957 423.697 580.03 423.678C580.103 423.659 580.179 423.655 580.254 423.666L583.253 424.117C583.328 424.127 583.399 424.151 583.464 424.189C583.528 424.228 583.584 424.279 583.629 424.339C583.673 424.4 583.704 424.469 583.72 424.542C583.737 424.615 583.738 424.691 583.724 424.765C583.71 424.902 583.646 425.029 583.545 425.123C583.444 425.217 583.313 425.271 583.175 425.275Z" fill="black"/>
<path d="M564.846 430.257C563.688 430.162 562.603 429.654 561.788 428.825C561.721 428.761 561.672 428.679 561.648 428.589C561.624 428.499 561.625 428.404 561.651 428.315C561.669 428.219 561.713 428.129 561.779 428.056C561.844 427.984 561.929 427.931 562.023 427.903L568.277 425.824C568.373 425.79 568.477 425.783 568.577 425.805C568.677 425.827 568.769 425.876 568.843 425.948C568.916 426.019 568.968 426.11 568.993 426.209C569.017 426.309 569.014 426.413 568.982 426.511C568.531 427.966 567.533 429.189 566.199 429.923C565.781 430.142 565.317 430.256 564.846 430.257ZM563.376 428.648C563.708 428.883 564.094 429.03 564.498 429.078C564.902 429.126 565.311 429.073 565.689 428.923C566.388 428.552 566.971 427.995 567.375 427.315L563.376 428.648Z" fill="black"/>
<path d="M567.042 420.803C566.963 420.8 566.887 420.782 566.816 420.749C566.745 420.715 566.682 420.668 566.63 420.609C566.579 420.55 566.54 420.481 566.516 420.406C566.493 420.331 566.485 420.253 566.493 420.175L566.865 417.194C566.901 417.061 566.983 416.946 567.096 416.87C567.21 416.793 567.347 416.76 567.483 416.777C567.619 416.793 567.745 416.859 567.836 416.96C567.928 417.062 567.98 417.194 567.983 417.331L567.61 420.312C567.591 420.449 567.523 420.574 567.418 420.665C567.314 420.755 567.18 420.804 567.042 420.803Z" fill="black"/>
<path d="M558.201 420.097C558.12 420.094 558.04 420.076 557.967 420.041C557.894 420.007 557.829 419.958 557.775 419.897C557.722 419.836 557.682 419.765 557.657 419.688C557.633 419.611 557.624 419.53 557.632 419.449L558.063 416.468C558.092 416.322 558.175 416.193 558.294 416.106C558.414 416.018 558.563 415.98 558.71 415.997C558.785 416.007 558.856 416.031 558.921 416.069C558.985 416.108 559.041 416.159 559.085 416.219C559.129 416.28 559.161 416.349 559.177 416.422C559.193 416.495 559.195 416.571 559.181 416.645L558.749 419.626C558.73 419.758 558.664 419.878 558.563 419.965C558.462 420.051 558.334 420.098 558.201 420.097Z" fill="black"/>
<path d="M569.825 415.095C569.72 415.095 569.616 415.066 569.526 415.011C569.436 414.955 569.363 414.876 569.316 414.781C568.61 413.408 566.708 413.8 566.63 413.8C566.558 413.818 566.483 413.82 566.41 413.807C566.337 413.795 566.267 413.768 566.204 413.727C566.142 413.687 566.089 413.634 566.047 413.573C566.006 413.511 565.977 413.442 565.963 413.369C565.934 413.223 565.963 413.072 566.043 412.948C566.124 412.823 566.25 412.735 566.395 412.702C567.13 412.521 567.904 412.575 568.607 412.857C569.31 413.138 569.907 413.633 570.315 414.271C570.385 414.404 570.399 414.559 570.355 414.702C570.311 414.845 570.212 414.965 570.08 415.036C570 415.074 569.913 415.094 569.825 415.095Z" fill="black"/>
<path d="M561.18 413.251C561.088 413.247 560.997 413.222 560.915 413.178C560.834 413.134 560.764 413.072 560.71 412.996C560.611 412.825 560.475 412.679 560.312 412.567C560.149 412.455 559.964 412.38 559.769 412.349C559.043 412.35 558.343 412.622 557.808 413.114C557.694 413.213 557.545 413.262 557.394 413.251C557.244 413.24 557.104 413.169 557.005 413.055C556.906 412.941 556.857 412.792 556.868 412.641C556.879 412.49 556.949 412.35 557.064 412.251C557.834 411.578 558.825 411.215 559.847 411.231C560.202 411.285 560.542 411.414 560.843 411.61C561.144 411.806 561.399 412.065 561.592 412.369C561.674 412.494 561.704 412.646 561.675 412.793C561.645 412.94 561.559 413.069 561.435 413.153C561.358 413.204 561.271 413.237 561.18 413.251Z" fill="black"/>
<path d="M555.045 562.652C555.045 562.652 586.958 560.868 588.782 562.652C590.605 564.437 589.507 597.115 589.507 597.115C589.507 597.115 593.427 634.009 590.761 637.559C588.767 639.646 586.4 641.343 583.783 642.561C582.384 643.304 580.773 643.542 579.219 643.235C577.666 642.928 576.266 642.094 575.255 640.874C572.889 637.836 571.295 634.268 570.609 630.478L568.492 619.808L554.398 595.408L555.045 562.652Z" fill="#F789C8"/>
<path d="M602.974 596.526C602.974 596.526 601.582 620.867 602.974 622.75C604.366 624.633 647.67 643.561 649.316 644.326C650.963 645.091 665.489 645.424 669.115 645.679C672.742 645.934 672.468 633.46 670.213 629.753C667.959 626.046 659.177 622.848 659.177 622.848L635.339 594.663L603.17 593.211L602.974 596.526Z" fill="#F789C8"/>
<path d="M595.937 577.128H595.741C595.67 577.104 595.605 577.066 595.549 577.016C595.494 576.966 595.449 576.905 595.418 576.837C595.386 576.769 595.369 576.695 595.368 576.621C595.366 576.546 595.379 576.472 595.407 576.402C595.545 576.01 609.875 537.664 626.772 520.933C626.825 520.878 626.887 520.834 626.957 520.804C627.026 520.774 627.101 520.758 627.177 520.757C627.253 520.756 627.328 520.77 627.398 520.799C627.469 520.827 627.532 520.87 627.586 520.923C627.64 520.977 627.682 521.041 627.711 521.111C627.739 521.181 627.754 521.257 627.753 521.333C627.752 521.408 627.736 521.483 627.705 521.553C627.675 521.622 627.631 521.685 627.576 521.738C610.874 538.292 596.623 576.402 596.486 576.795C596.434 576.896 596.356 576.981 596.259 577.04C596.162 577.099 596.05 577.129 595.937 577.128Z" fill="#F789C8"/>
<path d="M549.281 564.163H549.144C526.856 558.906 504.18 555.462 481.336 553.865C481.263 553.863 481.19 553.846 481.123 553.814C481.056 553.783 480.996 553.739 480.947 553.684C480.897 553.629 480.859 553.565 480.835 553.495C480.812 553.425 480.802 553.351 480.807 553.277C480.817 553.13 480.884 552.992 480.994 552.893C481.104 552.794 481.248 552.742 481.395 552.747C504.311 554.344 527.059 557.794 549.418 563.065C549.561 563.106 549.682 563.2 549.759 563.327C549.835 563.454 549.861 563.606 549.83 563.751C549.793 563.869 549.72 563.971 549.622 564.045C549.523 564.119 549.404 564.16 549.281 564.163Z" fill="#F789C8"/>
<path d="M533.206 490.472C533.067 490.473 532.933 490.42 532.832 490.326C532.73 490.231 532.668 490.101 532.658 489.962C531.913 483.705 536.755 464.915 536.97 464.13C536.986 464.057 537.017 463.988 537.061 463.927C537.104 463.866 537.16 463.815 537.224 463.776C537.289 463.737 537.36 463.712 537.434 463.703C537.509 463.693 537.584 463.698 537.656 463.719C537.798 463.76 537.918 463.854 537.991 463.983C538.064 464.111 538.085 464.262 538.048 464.405C538.048 464.601 533.05 483.764 533.775 489.904C533.787 490.051 533.743 490.197 533.652 490.313C533.561 490.429 533.43 490.507 533.285 490.531L533.206 490.472Z" fill="#5D2866"/>
<path d="M501.979 555.081C500.665 554.983 489.57 554.101 487.707 550.492C487.49 550.061 487.395 549.579 487.433 549.098C487.471 548.617 487.641 548.156 487.923 547.765C488.051 547.559 488.222 547.383 488.426 547.251C488.629 547.119 488.859 547.033 489.099 547C492.451 546.432 501.312 553.277 502.331 554.061C502.419 554.142 502.482 554.245 502.513 554.359C502.545 554.474 502.543 554.595 502.508 554.709C502.466 554.816 502.393 554.908 502.299 554.974C502.205 555.041 502.094 555.078 501.979 555.081ZM489.609 548.079H489.295C489.212 548.089 489.132 548.116 489.061 548.161C488.99 548.205 488.929 548.264 488.884 548.334C488.705 548.558 488.593 548.828 488.562 549.113C488.531 549.397 488.581 549.685 488.707 549.942C489.825 552.12 496.117 553.296 500.058 553.748C496.96 551.433 491.844 548.02 489.609 548.02V548.079Z" fill="#F789C8"/>
<path d="M558.416 416.998C558.339 417.015 558.258 417.015 558.181 416.998L556.691 416.331C556.557 416.267 556.454 416.153 556.402 416.014C556.351 415.875 556.356 415.721 556.417 415.585C556.446 415.517 556.489 415.456 556.543 415.405C556.597 415.354 556.661 415.314 556.73 415.289C556.8 415.263 556.874 415.252 556.948 415.256C557.022 415.259 557.095 415.278 557.162 415.311L558.651 415.978C558.765 416.034 558.857 416.127 558.912 416.241C558.967 416.355 558.983 416.485 558.956 416.609C558.929 416.733 558.861 416.845 558.763 416.926C558.665 417.007 558.543 417.053 558.416 417.057V416.998Z" fill="black"/>
<path d="M509.506 526.641H567.414C569.46 526.641 571.119 524.981 571.119 522.934V483.725C571.119 481.678 569.46 480.018 567.414 480.018H509.506C507.46 480.018 505.801 481.678 505.801 483.725V522.934C505.801 524.981 507.46 526.641 509.506 526.641Z" fill="#8B558E"/>
<path d="M513.819 526.641H571.472C573.518 526.641 575.177 524.981 575.177 522.934V483.725C575.177 481.678 573.518 480.018 571.472 480.018H513.819C511.773 480.018 510.114 481.678 510.114 483.725V522.934C510.114 524.981 511.773 526.641 513.819 526.641Z" fill="black"/>
<path d="M540.107 508.831C543.138 508.831 545.596 506.372 545.596 503.339C545.596 500.306 543.138 497.847 540.107 497.847C537.075 497.847 534.618 500.306 534.618 503.339C534.618 506.372 537.075 508.831 540.107 508.831Z" fill="white"/>
<path d="M567.375 417.782C567.286 417.811 567.19 417.811 567.1 417.782L565.669 416.939C565.539 416.861 565.444 416.736 565.404 416.59C565.364 416.444 565.382 416.288 565.454 416.154C565.492 416.09 565.543 416.033 565.603 415.988C565.663 415.943 565.732 415.911 565.805 415.892C565.878 415.874 565.954 415.871 566.028 415.882C566.102 415.893 566.174 415.919 566.238 415.958L567.669 416.802C567.734 416.84 567.79 416.891 567.835 416.951C567.88 417.011 567.912 417.08 567.931 417.153C567.949 417.226 567.952 417.302 567.941 417.376C567.93 417.45 567.904 417.522 567.865 417.586C567.805 417.656 567.729 417.71 567.644 417.745C567.559 417.779 567.466 417.792 567.375 417.782Z" fill="black"/>
<path d="M588.193 501.26L575.177 497.023C575.064 498.653 575.182 500.291 575.53 501.888C576.02 502.614 553.398 506.105 553.457 508.302C553.48 508.92 553.703 509.513 554.091 509.994C554.48 510.475 555.014 510.817 555.613 510.969C555.613 510.969 551.085 511.95 552.3 514.127C552.622 514.75 553.093 515.284 553.671 515.681C554.249 516.078 554.916 516.326 555.613 516.402C555.613 516.402 551.163 518.579 555.613 521.325C560.063 524.071 581.94 525.797 588.938 518.795C594.094 513.656 588.193 501.26 588.193 501.26Z" fill="#F48462"/>
<path d="M577.882 418.939C577.882 418.939 570.394 417.507 567.238 412.623C565.398 409.678 564.073 406.442 563.317 403.052C561.795 403.97 560.431 405.129 559.279 406.484C557.944 407.743 557.057 409.402 556.75 411.211C556.75 411.211 554.084 401.522 563.807 398.246C567.702 396.968 571.94 397.24 575.641 399.003C579.341 400.767 582.222 403.888 583.685 407.72C585.959 413.859 577.882 418.939 577.882 418.939Z" fill="black"/>
<path d="M581.391 494.532L581.96 523.62C581.96 523.62 585.88 526.876 600.504 516.343C619.441 502.751 608.189 490.178 608.189 490.178L601.308 485.255L581.391 494.532Z" fill="#F789C8"/>
<path d="M555.613 511.538C555.474 511.538 555.34 511.486 555.238 511.391C555.136 511.297 555.074 511.167 555.064 511.028C555.047 510.88 555.089 510.732 555.181 510.614C555.273 510.497 555.407 510.42 555.554 510.4L568.492 508.91C568.566 508.899 568.641 508.903 568.713 508.922C568.785 508.941 568.852 508.974 568.911 509.02C568.97 509.066 569.018 509.123 569.054 509.189C569.09 509.254 569.112 509.326 569.12 509.4C569.128 509.475 569.121 509.551 569.1 509.623C569.078 509.695 569.043 509.762 568.996 509.82C568.948 509.879 568.89 509.927 568.823 509.963C568.757 509.998 568.685 510.02 568.61 510.028L555.672 511.538H555.613Z" fill="black"/>
<path d="M568.492 516.971H555.554C555.403 516.971 555.259 516.911 555.152 516.804C555.046 516.698 554.986 516.553 554.986 516.402C554.986 516.251 555.046 516.107 555.152 516C555.259 515.893 555.403 515.833 555.554 515.833H568.492C568.643 515.833 568.788 515.893 568.894 516C569.001 516.107 569.061 516.251 569.061 516.402C569.061 516.553 569.001 516.698 568.894 516.804C568.788 516.911 568.643 516.971 568.492 516.971Z" fill="black"/>
<path d="M543.224 444.614C546.644 447.099 550.256 449.31 554.025 451.224C557.028 452.747 560.156 454.007 563.376 454.99C563.376 454.99 577.353 452.637 583.489 450.773C589.624 448.91 593.663 447.302 593.663 447.302L581.666 437.083L566.826 443.849L556.475 439.632C556.475 439.632 545.596 442.025 543.224 444.614Z" fill="#A76FA8"/>
<path d="M573.06 465.268C572.938 465.27 572.82 465.233 572.721 465.162C572.622 465.092 572.549 464.991 572.511 464.876L569.551 455.069C569.508 454.926 569.523 454.772 569.592 454.639C569.662 454.507 569.781 454.408 569.923 454.363C569.994 454.339 570.069 454.329 570.143 454.335C570.218 454.341 570.29 454.362 570.356 454.397C570.422 454.432 570.481 454.48 570.528 454.538C570.574 454.596 570.609 454.663 570.629 454.735L573.589 464.543C573.613 464.613 573.623 464.688 573.617 464.763C573.611 464.837 573.59 464.91 573.555 464.976C573.52 465.042 573.472 465.1 573.414 465.147C573.356 465.194 573.289 465.229 573.217 465.249L573.06 465.268Z" fill="#5D2866"/>
<path d="M554.77 465.268H554.613C554.472 465.227 554.352 465.132 554.278 465.004C554.205 464.876 554.185 464.725 554.221 464.582L556.966 454.775C557.007 454.633 557.101 454.513 557.229 454.44C557.357 454.366 557.509 454.346 557.652 454.382C557.725 454.4 557.795 454.433 557.855 454.479C557.915 454.525 557.965 454.583 558.002 454.649C558.039 454.716 558.062 454.789 558.069 454.865C558.076 454.94 558.068 455.016 558.044 455.088L555.299 464.797C555.281 464.926 555.218 465.044 555.121 465.13C555.024 465.216 554.9 465.265 554.77 465.268Z" fill="#5D2866"/>
<path d="M577.333 494.278C577.227 494.283 577.121 494.256 577.03 494.2C576.939 494.144 576.867 494.062 576.824 493.964C576.79 493.898 576.77 493.827 576.765 493.754C576.76 493.68 576.77 493.607 576.794 493.537C576.817 493.468 576.855 493.404 576.904 493.349C576.953 493.294 577.012 493.25 577.078 493.219C577.823 492.846 595.309 484.098 604.386 483.411C604.459 483.403 604.534 483.41 604.605 483.432C604.676 483.453 604.742 483.489 604.798 483.537C604.855 483.584 604.902 483.643 604.935 483.709C604.969 483.775 604.988 483.847 604.993 483.921C604.999 483.996 604.989 484.071 604.965 484.142C604.942 484.213 604.904 484.279 604.855 484.336C604.806 484.392 604.746 484.438 604.679 484.472C604.612 484.505 604.539 484.525 604.464 484.529C595.623 485.157 577.765 494.101 577.588 494.18C577.512 494.231 577.425 494.265 577.333 494.278Z" fill="#5D2866"/>
<path d="M588.801 489.021C588.68 489.021 588.562 488.98 588.468 488.903C588.371 488.826 588.3 488.72 588.265 488.601C588.23 488.481 588.232 488.354 588.272 488.236C588.723 487.118 592.683 477.37 597.328 477.488C598.25 477.488 598.603 477.959 598.72 478.312C599.406 480.45 592.271 486.412 589.154 488.884C589.108 488.93 589.053 488.966 588.992 488.989C588.931 489.013 588.866 489.024 588.801 489.021ZM597.191 478.606C594.604 478.606 591.84 483.235 590.271 486.452C594.604 482.803 597.858 479.39 597.642 478.606C597.642 478.606 597.642 478.606 597.289 478.606H597.191Z" fill="#5D2866"/>
<path d="M646.415 609.001H635.476C635.403 609.003 635.329 608.991 635.26 608.965C635.191 608.938 635.129 608.898 635.075 608.847C635.022 608.796 634.98 608.734 634.951 608.666C634.923 608.598 634.908 608.525 634.908 608.452C634.908 608.301 634.968 608.156 635.074 608.049C635.181 607.943 635.326 607.883 635.476 607.883H646.415C646.566 607.883 646.71 607.943 646.817 608.049C646.923 608.156 646.983 608.301 646.983 608.452C646.983 608.525 646.969 608.598 646.94 608.666C646.911 608.734 646.869 608.796 646.816 608.847C646.763 608.898 646.7 608.938 646.631 608.965C646.562 608.991 646.489 609.003 646.415 609.001Z" fill="#5D2866"/>
<path d="M653.648 616.748H638.26C638.13 616.724 638.012 616.655 637.927 616.553C637.843 616.451 637.797 616.322 637.797 616.189C637.797 616.057 637.843 615.928 637.927 615.826C638.012 615.724 638.13 615.655 638.26 615.63H653.648C653.731 615.615 653.815 615.618 653.896 615.639C653.977 615.66 654.052 615.698 654.116 615.752C654.181 615.805 654.233 615.872 654.268 615.948C654.304 616.023 654.322 616.106 654.322 616.189C654.322 616.273 654.304 616.356 654.268 616.431C654.233 616.507 654.181 616.574 654.116 616.627C654.052 616.681 653.977 616.719 653.896 616.74C653.815 616.761 653.731 616.764 653.648 616.748Z" fill="#5D2866"/>
<path d="M559.24 604.313H559.102C558.957 604.276 558.832 604.183 558.755 604.055C558.678 603.926 558.655 603.772 558.691 603.627L560.651 595.663C560.667 595.592 560.697 595.525 560.74 595.465C560.782 595.406 560.836 595.356 560.898 595.317C560.96 595.279 561.029 595.253 561.101 595.242C561.173 595.231 561.247 595.234 561.317 595.251C561.464 595.289 561.59 595.381 561.67 595.508C561.75 595.636 561.779 595.79 561.749 595.938L559.788 603.901C559.754 604.02 559.682 604.125 559.583 604.199C559.484 604.274 559.363 604.314 559.24 604.313Z" fill="#5D2866"/>
<path d="M564.572 612.786H564.454C564.312 612.749 564.189 612.66 564.109 612.537C564.029 612.413 563.998 612.264 564.023 612.119L566.65 600.351C566.682 600.206 566.771 600.08 566.895 599.999C567.02 599.919 567.171 599.89 567.316 599.919C567.461 599.952 567.587 600.04 567.667 600.165C567.748 600.29 567.777 600.441 567.747 600.586L565.14 612.355C565.109 612.481 565.035 612.592 564.932 612.671C564.829 612.749 564.701 612.79 564.572 612.786Z" fill="#5D2866"/>
<path d="M516.681 504.379C516.127 503.377 515.34 502.523 514.387 501.888C511.212 499.691 501.214 495.101 498.234 497.965C495.255 500.829 500.881 503.398 500.881 503.398C500.881 503.398 496.019 502.084 496.255 505.693C496.387 506.588 496.764 507.428 497.346 508.121C497.927 508.814 498.69 509.331 499.548 509.616C499.548 509.616 494.373 508.733 496.255 513.048C498.136 517.363 508.84 521.208 512.78 521.09C516.72 520.972 513.917 515.814 513.917 515.814C513.917 515.814 518.151 515.108 518.151 512.774C518.151 510.439 514.819 509.341 514.819 509.341C515.305 509.186 515.749 508.924 516.119 508.572C516.489 508.221 516.774 507.79 516.953 507.312C517.133 506.834 517.201 506.322 517.154 505.814C517.107 505.306 516.945 504.815 516.681 504.379Z" fill="#F48462"/>
<path d="M513.603 509.635C513.526 509.654 513.445 509.654 513.368 509.635L500.665 503.888C500.59 503.863 500.522 503.823 500.463 503.77C500.405 503.717 500.358 503.653 500.326 503.581C500.294 503.508 500.277 503.43 500.276 503.352C500.276 503.273 500.292 503.195 500.323 503.122C500.355 503.05 500.401 502.985 500.459 502.931C500.517 502.877 500.585 502.837 500.66 502.811C500.734 502.785 500.813 502.775 500.892 502.782C500.97 502.788 501.047 502.811 501.116 502.849L513.839 508.596C513.974 508.663 514.078 508.781 514.129 508.923C514.18 509.066 514.174 509.222 514.113 509.361C514.062 509.449 513.987 509.522 513.897 509.571C513.807 509.619 513.705 509.641 513.603 509.635Z" fill="black"/>
<path d="M512.368 515.853C512.298 515.873 512.223 515.873 512.153 515.853L499.313 510.244C499.175 510.183 499.067 510.071 499.012 509.932C498.957 509.792 498.959 509.636 499.019 509.498C499.083 509.364 499.195 509.259 499.333 509.205C499.471 509.15 499.625 509.15 499.763 509.204L512.604 514.814C512.738 514.878 512.842 514.99 512.897 515.129C512.952 515.267 512.952 515.421 512.898 515.559C512.846 515.653 512.769 515.73 512.675 515.782C512.582 515.835 512.475 515.859 512.368 515.853Z" fill="black"/>
<path d="M601.328 178.234H209.323C203.682 178.234 199.109 182.809 199.109 188.453V385.419C199.109 391.062 203.682 395.638 209.323 395.638H601.328C606.968 395.638 611.541 391.062 611.541 385.419V188.453C611.541 182.809 606.968 178.234 601.328 178.234Z" fill="url(#paint1_linear_201_53)"/>
<path d="M106.23 289.427H18.7014C14.7714 289.427 11.5855 292.614 11.5855 296.547V338.286C11.5855 342.218 14.7714 345.406 18.7014 345.406H106.23C110.16 345.406 113.346 342.218 113.346 338.286V296.547C113.346 292.614 110.16 289.427 106.23 289.427Z" fill="#FBFDFF"/>
<path d="M68.2191 338.462L78.4911 365.471L46.4203 341.326L68.2191 338.462Z" fill="#FBFDFF"/>
<path d="M192.954 404.856C192.954 404.856 199.854 405.366 197.659 415.134C195.463 424.902 189.171 412.761 189.171 412.761L192.954 404.856Z" fill="#FFA98F"/>
<path d="M261.016 592.878C259.683 593.643 181.937 589.622 180.192 588.014C179.565 587.425 179.604 583.738 180.192 578.461C181.094 568.89 186.505 552.531 189.504 542.43C189.504 542.43 216.694 544.254 219.124 545.804C221.555 547.353 247.765 569.498 247.765 569.498C247.765 569.498 257.762 573.303 261.35 579.305C262.328 580.915 262.93 582.725 263.114 584.601C263.486 588.7 261.957 592.348 261.016 592.878Z" fill="#9ED3FF"/>
<path d="M261.016 592.878C259.683 593.643 181.937 589.622 180.192 588.014C179.565 587.425 179.604 583.738 180.192 578.462L263.114 584.522C263.486 588.7 261.957 592.348 261.016 592.878Z" fill="black"/>
<path d="M238.708 562.652C238.852 562.653 238.991 562.598 239.097 562.5C239.202 562.402 239.266 562.267 239.276 562.123C239.285 562.049 239.278 561.975 239.256 561.904C239.235 561.833 239.199 561.767 239.151 561.71C239.104 561.653 239.045 561.607 238.979 561.573C238.913 561.54 238.841 561.52 238.767 561.515L217.713 559.828L227.515 553.453C227.642 553.37 227.731 553.24 227.762 553.091C227.794 552.942 227.764 552.787 227.681 552.659C227.598 552.532 227.468 552.442 227.319 552.411C227.17 552.38 227.015 552.409 226.887 552.492L215.635 559.789C215.538 559.854 215.464 559.947 215.422 560.056C215.38 560.165 215.372 560.284 215.4 560.397C215.431 560.512 215.496 560.615 215.587 560.692C215.678 560.769 215.791 560.817 215.909 560.828L238.61 562.652H238.708Z" fill="white"/>
<path d="M165.902 470.505C165.902 470.505 209.029 439.966 246.275 449.341C283.521 458.717 229.122 549.374 229.122 549.374L174.998 549.491L180.349 523.502L115.345 523.365L144.025 482.744L165.902 470.505Z" fill="#1C3469"/>
<path d="M215.831 475.919C215.925 475.92 216.017 475.897 216.099 475.852C216.182 475.808 216.251 475.743 216.301 475.664C219.456 470.852 223.225 466.473 227.515 462.64C227.571 462.591 227.618 462.531 227.651 462.464C227.685 462.397 227.705 462.325 227.71 462.25C227.716 462.175 227.707 462.1 227.683 462.029C227.66 461.958 227.622 461.892 227.573 461.836C227.524 461.779 227.465 461.733 227.398 461.699C227.331 461.665 227.258 461.645 227.184 461.64C227.109 461.634 227.034 461.644 226.963 461.667C226.892 461.691 226.826 461.728 226.77 461.777C222.409 465.696 218.568 470.159 215.341 475.056C215.265 475.184 215.242 475.337 215.274 475.483C215.307 475.628 215.394 475.756 215.517 475.84C215.612 475.896 215.721 475.923 215.831 475.919Z" fill="black"/>
<path d="M149.239 400.757L196.777 438.593C196.777 438.593 197.149 463.659 173.625 470.505C150.102 477.35 147.377 448.792 147.377 448.792L149.239 400.757Z" fill="#9ED3FF"/>
<path d="M179.742 432.14C179.742 432.14 178.605 446.223 189.818 444.869C201.031 443.516 200.325 427.432 200.325 427.432L179.742 432.14Z" fill="#FFA98F"/>
<path d="M92.2526 503.81C92.2526 503.81 70.6891 425.804 88.8416 404.346C106.994 382.888 149.239 400.757 149.239 400.757L169.45 472.349L92.2526 503.81Z" fill="#9ED3FF"/>
<path d="M123.265 450.812C123.265 450.812 134.184 433.473 139.477 431.512C144.769 429.551 157.59 432.14 157.59 433.67C157.59 435.199 145.828 437.063 145.828 437.063C145.828 437.063 152.493 448.831 152.611 451.342C152.728 453.853 146.73 461.6 145.377 462.365C144.025 463.13 140.633 458.972 140.633 458.972C138.294 461.713 135.24 463.75 131.812 464.856C126.656 466.209 120.736 458.383 120.736 458.383L123.265 450.812Z" fill="#FFA98F"/>
<path d="M140.633 459.482L145.083 458.736C145.231 458.712 145.363 458.631 145.451 458.51C145.54 458.388 145.576 458.237 145.554 458.089C145.544 458.015 145.52 457.943 145.482 457.878C145.443 457.814 145.393 457.758 145.332 457.714C145.271 457.67 145.202 457.638 145.129 457.622C145.056 457.606 144.98 457.604 144.907 457.618L142.26 458.069L144.456 455.833C144.511 455.782 144.555 455.72 144.585 455.651C144.615 455.581 144.631 455.507 144.631 455.431C144.631 455.356 144.615 455.281 144.585 455.212C144.555 455.143 144.511 455.081 144.456 455.029C144.349 454.923 144.205 454.863 144.054 454.863C143.903 454.863 143.759 454.923 143.652 455.029L140.241 458.501C140.155 458.582 140.098 458.69 140.08 458.808C140.062 458.925 140.085 459.045 140.143 459.148C140.184 459.245 140.252 459.328 140.339 459.387C140.426 459.446 140.528 459.479 140.633 459.482Z" fill="black"/>
<path d="M138.614 438.867L145.828 437.671C145.974 437.642 146.103 437.56 146.19 437.439C146.277 437.319 146.316 437.171 146.299 437.023C146.287 436.948 146.26 436.876 146.22 436.812C146.18 436.747 146.127 436.691 146.065 436.647C146.003 436.603 145.932 436.572 145.858 436.556C145.784 436.54 145.707 436.539 145.632 436.553L138.516 437.749C138.443 437.761 138.374 437.787 138.312 437.826C138.249 437.866 138.196 437.917 138.154 437.977C138.112 438.038 138.082 438.106 138.067 438.178C138.052 438.25 138.051 438.324 138.065 438.396C138.084 438.528 138.15 438.648 138.251 438.735C138.352 438.822 138.481 438.869 138.614 438.867Z" fill="black"/>
<path d="M104.544 382.477L104.897 396.383C104.897 396.383 107.504 400.306 115.659 400.796C121.716 401.13 123.814 399.717 123.814 399.717L122.794 392.676L121.795 385.831L107.033 382.967L104.544 382.477Z" fill="#FFA98F"/>
<path d="M107.269 384.065C107.344 384.511 107.489 384.941 107.7 385.34C110.954 391.95 119.462 393.186 122.892 393.421L121.893 386.851L107.269 384.065Z" fill="black"/>
<path d="M123.657 356.351C123.657 356.351 131.047 372.905 128.518 382.261C125.99 391.617 117.482 390.224 112.385 388.459C109.491 387.542 106.898 385.862 104.877 383.595C103.449 384.016 101.925 383.979 100.519 383.49C99.1133 383.001 97.8952 382.084 97.0357 380.868C93.8208 376.475 95.7223 371.375 98.4276 370.198C99.4061 369.91 100.434 369.827 101.446 369.955C102.458 370.083 103.433 370.42 104.309 370.944L101.741 366.138C101.741 366.138 112.111 341.503 123.657 356.351Z" fill="#FFA98F"/>
<path d="M123.069 377.495C123.189 377.494 123.307 377.455 123.405 377.385C123.503 377.315 123.577 377.216 123.618 377.102C123.872 375.836 123.866 374.53 123.6 373.265C123.334 372.001 122.813 370.804 122.069 369.747C121.982 369.626 121.852 369.544 121.705 369.518C121.558 369.493 121.408 369.525 121.285 369.61C121.163 369.7 121.08 369.834 121.054 369.984C121.029 370.134 121.062 370.288 121.148 370.414C121.792 371.326 122.246 372.359 122.482 373.451C122.718 374.543 122.731 375.672 122.52 376.769C122.482 376.912 122.499 377.064 122.568 377.195C122.637 377.326 122.753 377.426 122.892 377.475L123.069 377.495Z" fill="black"/>
<path d="M103.583 378.77C103.708 378.732 103.817 378.656 103.897 378.554C103.999 378.445 104.056 378.301 104.056 378.152C104.056 378.002 103.999 377.859 103.897 377.75L99.3685 372.983C99.2619 372.877 99.1174 372.817 98.9667 372.817C98.8159 372.817 98.6714 372.877 98.5648 372.983C98.5126 373.035 98.4712 373.096 98.4429 373.163C98.4146 373.23 98.4 373.303 98.4 373.376C98.4 373.449 98.4146 373.521 98.4429 373.588C98.4712 373.656 98.5126 373.717 98.5648 373.768L103.172 378.554C103.221 378.617 103.283 378.669 103.354 378.706C103.425 378.743 103.503 378.765 103.583 378.77Z" fill="black"/>
<path d="M98.8 377.494L102.015 377.004C102.163 376.98 102.295 376.898 102.383 376.777C102.471 376.656 102.508 376.505 102.485 376.357C102.457 376.211 102.374 376.082 102.254 375.994C102.134 375.907 101.986 375.868 101.839 375.886L98.7216 376.376C98.5914 376.401 98.4738 376.47 98.3892 376.572C98.3045 376.674 98.2582 376.803 98.2582 376.935C98.2582 377.068 98.3045 377.196 98.3892 377.298C98.4738 377.401 98.5914 377.47 98.7216 377.494H98.8Z" fill="black"/>
<path d="M187.283 399.973L172.552 398.757C170.88 398.618 169.412 399.863 169.274 401.536L166.435 435.94C166.297 437.614 167.541 439.082 169.213 439.22L183.944 440.437C185.616 440.575 187.084 439.331 187.222 437.657L190.061 403.254C190.199 401.58 188.955 400.112 187.283 399.973Z" fill="white"/>
<path d="M190.29 400.22L175.56 399.003C173.887 398.864 172.42 400.109 172.281 401.782L169.442 436.186C169.304 437.86 170.548 439.328 172.221 439.466L186.951 440.683C188.624 440.821 190.091 439.577 190.23 437.903L193.069 403.5C193.207 401.826 191.963 400.358 190.29 400.22Z" fill="black"/>
<path d="M104.269 370.943C104.515 371.097 104.791 371.197 105.078 371.237C105.365 371.277 105.657 371.257 105.936 371.178C106.215 371.098 106.474 370.961 106.697 370.776C106.919 370.59 107.101 370.36 107.229 370.1C108.464 368.139 105.74 362.392 105.74 362.392C105.74 362.392 110.876 363.549 114.051 361.842C116.268 360.27 117.924 358.03 118.776 355.448C118.776 355.448 121.128 360.313 128.146 358.155C135.164 355.997 136.477 346.386 128.969 344.425C121.461 342.464 117.384 345.818 117.384 345.818C117.384 345.818 116.423 338.874 107.171 342.326C98.7412 345.465 97.369 356.056 97.369 356.056C95.858 356.189 94.4373 356.833 93.34 357.881C92.2428 358.929 91.5344 360.319 91.3312 361.823C90.3707 367.334 96.8397 371.316 96.8397 371.316C97.9754 370.714 99.2294 370.368 100.513 370.304C101.797 370.239 103.079 370.458 104.269 370.943Z" fill="black"/>
<path d="M115.522 371.316C115.601 371.316 115.68 371.3 115.754 371.268C115.827 371.236 115.892 371.188 115.946 371.129C115.999 371.07 116.04 371 116.065 370.924C116.09 370.848 116.098 370.768 116.09 370.688L115.698 367.589C115.688 367.514 115.664 367.442 115.626 367.376C115.588 367.311 115.538 367.254 115.477 367.208C115.417 367.163 115.348 367.129 115.275 367.111C115.202 367.092 115.126 367.088 115.051 367.099C114.977 367.106 114.905 367.128 114.84 367.164C114.774 367.2 114.717 367.249 114.671 367.307C114.625 367.366 114.592 367.434 114.573 367.506C114.554 367.578 114.55 367.653 114.561 367.727L114.973 370.826C114.987 370.961 115.051 371.086 115.153 371.176C115.254 371.267 115.386 371.317 115.522 371.316Z" fill="black"/>
<path d="M124.715 370.551C124.797 370.553 124.877 370.536 124.951 370.502C125.025 370.469 125.09 370.419 125.143 370.358C125.195 370.296 125.233 370.223 125.254 370.144C125.275 370.066 125.279 369.984 125.264 369.904L124.813 366.785C124.778 366.649 124.692 366.531 124.574 366.454C124.457 366.377 124.314 366.346 124.175 366.368C124.036 366.39 123.91 366.463 123.821 366.573C123.733 366.683 123.688 366.821 123.696 366.962L124.147 370.041C124.166 370.18 124.233 370.308 124.337 370.401C124.441 370.495 124.576 370.548 124.715 370.551Z" fill="black"/>
<path d="M112.64 365.392C112.743 365.391 112.843 365.361 112.93 365.306C113.017 365.25 113.086 365.172 113.13 365.079C113.875 363.647 115.855 364.039 115.953 364.059C116.098 364.088 116.249 364.059 116.374 363.979C116.498 363.898 116.586 363.772 116.619 363.627C116.649 363.479 116.621 363.325 116.541 363.198C116.46 363.07 116.334 362.978 116.188 362.941C115.426 362.758 114.627 362.817 113.9 363.109C113.174 363.4 112.555 363.91 112.13 364.569C112.066 364.702 112.054 364.855 112.098 364.997C112.141 365.139 112.237 365.259 112.365 365.334C112.452 365.372 112.545 365.392 112.64 365.392Z" fill="black"/>
<path d="M121.54 363.451C121.631 363.451 121.721 363.43 121.803 363.389C121.884 363.348 121.955 363.289 122.01 363.216C122.114 363.037 122.256 362.883 122.425 362.765C122.594 362.646 122.787 362.566 122.99 362.529C123.715 362.553 124.409 362.83 124.951 363.314C125.065 363.412 125.214 363.462 125.365 363.451C125.515 363.44 125.656 363.369 125.754 363.255C125.853 363.14 125.902 362.991 125.891 362.841C125.88 362.69 125.81 362.549 125.696 362.451C124.893 361.766 123.869 361.397 122.814 361.411C122.449 361.459 122.1 361.588 121.791 361.788C121.483 361.988 121.223 362.255 121.03 362.568C120.948 362.693 120.918 362.846 120.947 362.993C120.977 363.14 121.063 363.269 121.187 363.353C121.287 363.43 121.414 363.465 121.54 363.451Z" fill="black"/>
<path d="M196.992 423.215C196.992 423.215 206.794 422.078 203.814 417.547C200.835 413.016 182.976 410.858 181.075 416.174C179.173 421.489 196.992 423.215 196.992 423.215Z" fill="#FFA98F"/>
<path d="M195.914 431.336C195.914 431.336 205.716 430.217 202.736 425.687C199.756 421.156 181.898 418.979 179.996 424.294C178.095 429.609 195.914 431.336 195.914 431.336Z" fill="#FFA98F"/>
<path d="M190.151 438.142C192.253 438.877 194.515 439.033 196.698 438.593C198.659 438.161 200.344 437.18 199.364 434.984C197.404 430.57 182.212 426 179.761 430.355C177.997 433.591 186.034 436.749 190.151 438.142Z" fill="#FFA98F"/>
<path d="M198.149 422.117C198.291 422.122 198.43 422.072 198.536 421.977C198.642 421.882 198.707 421.749 198.717 421.607C198.723 421.532 198.713 421.457 198.69 421.386C198.666 421.315 198.628 421.249 198.579 421.193C198.53 421.136 198.47 421.09 198.403 421.057C198.336 421.023 198.263 421.004 198.188 420.999L186.759 420.136C186.684 420.124 186.606 420.13 186.533 420.151C186.459 420.173 186.391 420.21 186.333 420.26C186.276 420.31 186.229 420.373 186.198 420.443C186.167 420.513 186.151 420.589 186.152 420.665C186.146 420.815 186.198 420.961 186.296 421.074C186.394 421.187 186.532 421.258 186.681 421.273L198.11 422.117H198.149Z" fill="black"/>
<path d="M196.306 431.12C196.445 431.12 196.579 431.068 196.681 430.973C196.783 430.878 196.845 430.748 196.855 430.61C196.863 430.536 196.856 430.461 196.835 430.39C196.813 430.319 196.778 430.254 196.73 430.197C196.682 430.14 196.624 430.093 196.558 430.06C196.492 430.026 196.419 430.007 196.345 430.002L184.917 429.139C184.842 429.133 184.767 429.143 184.696 429.167C184.625 429.19 184.559 429.228 184.503 429.277C184.446 429.326 184.4 429.386 184.367 429.453C184.334 429.52 184.314 429.593 184.309 429.668C184.301 429.742 184.308 429.817 184.329 429.888C184.351 429.959 184.387 430.024 184.434 430.081C184.482 430.138 184.54 430.185 184.607 430.218C184.673 430.252 184.745 430.271 184.819 430.276L196.247 431.12H196.306Z" fill="black"/>
<path d="M109.327 505.379H109.464C109.541 505.361 109.613 505.327 109.676 505.281C109.74 505.234 109.793 505.175 109.833 505.108C109.873 505.04 109.9 504.965 109.91 504.887C109.921 504.809 109.916 504.729 109.895 504.653L107.935 497.396C107.875 497.266 107.771 497.161 107.64 497.1C107.51 497.039 107.363 497.027 107.224 497.064C107.086 497.102 106.965 497.187 106.883 497.305C106.802 497.424 106.765 497.567 106.779 497.71L108.739 504.948C108.777 505.074 108.855 505.184 108.961 505.261C109.067 505.339 109.195 505.381 109.327 505.379Z" fill="#534579"/>
<path d="M166.098 487.197C166.257 487.192 166.409 487.126 166.522 487.013C166.635 486.9 166.701 486.748 166.705 486.589L166.49 478.861C166.49 478.782 166.474 478.704 166.443 478.631C166.412 478.558 166.367 478.492 166.311 478.438C166.254 478.383 166.187 478.34 166.113 478.311C166.04 478.283 165.961 478.27 165.882 478.272C165.723 478.282 165.573 478.353 165.464 478.469C165.354 478.586 165.294 478.74 165.294 478.9L165.51 486.608C165.51 486.686 165.525 486.762 165.554 486.834C165.584 486.905 165.627 486.97 165.682 487.024C165.737 487.079 165.801 487.122 165.873 487.152C165.944 487.182 166.021 487.197 166.098 487.197Z" fill="#534579"/>
<path d="M159.727 491.983C159.806 491.985 159.884 491.972 159.958 491.944C160.031 491.915 160.099 491.872 160.155 491.817C160.212 491.763 160.257 491.697 160.288 491.624C160.319 491.551 160.334 491.473 160.334 491.394V483.215C160.309 483.075 160.235 482.948 160.126 482.857C160.017 482.766 159.879 482.716 159.737 482.716C159.594 482.716 159.456 482.766 159.347 482.857C159.238 482.948 159.164 483.075 159.139 483.215V491.394C159.139 491.55 159.201 491.7 159.311 491.81C159.421 491.921 159.571 491.983 159.727 491.983Z" fill="#534579"/>
<path d="M119.129 382.202C119.5 382.197 119.869 382.144 120.226 382.045C120.359 381.998 120.47 381.902 120.536 381.778C120.603 381.653 120.621 381.508 120.587 381.371C120.553 381.234 120.469 381.115 120.351 381.036C120.234 380.958 120.092 380.926 119.952 380.947C119.196 381.091 118.415 380.999 117.713 380.683C117.012 380.367 116.424 379.843 116.031 379.181C115.954 379.056 115.831 378.966 115.689 378.929C115.546 378.892 115.395 378.913 115.267 378.985C115.2 379.022 115.141 379.071 115.095 379.131C115.048 379.192 115.015 379.261 114.997 379.334C114.978 379.408 114.975 379.485 114.988 379.56C115.001 379.635 115.029 379.706 115.071 379.77C115.495 380.478 116.087 381.07 116.795 381.494C117.503 381.919 118.304 382.162 119.129 382.202Z" fill="black"/>
<path d="M331.431 563.143C330.804 564.555 265.8 607.373 263.428 607.118C262.585 607.118 260.428 604.019 257.723 599.488C252.763 591.23 247.451 574.833 243.883 564.928C243.883 564.928 266.878 550.276 269.759 550.08C272.641 549.884 306.868 552.198 306.868 552.198C306.868 552.198 317.179 549.335 323.57 551.982C325.303 552.718 326.855 553.823 328.118 555.219C330.96 558.318 331.882 562.162 331.431 563.143Z" fill="#9ED3FF"/>
<path d="M331.431 563.143C330.804 564.555 265.8 607.373 263.428 607.118C262.585 607.118 260.428 604.019 257.723 599.488L328.118 555.219C330.96 558.318 331.882 562.162 331.431 563.143Z" fill="black"/>
<path d="M278.012 564.222C278.109 564.249 278.21 564.249 278.306 564.222L297.674 552.238C297.739 552.199 297.795 552.149 297.84 552.088C297.885 552.028 297.918 551.959 297.936 551.886C297.954 551.813 297.958 551.737 297.947 551.663C297.935 551.589 297.909 551.517 297.87 551.453C297.832 551.388 297.781 551.331 297.72 551.287C297.66 551.242 297.59 551.211 297.517 551.194C297.443 551.177 297.367 551.176 297.293 551.19C297.219 551.205 297.148 551.234 297.086 551.277L279.13 562.398L283.207 551.453C283.235 551.384 283.249 551.309 283.247 551.235C283.245 551.16 283.228 551.086 283.197 551.018C283.166 550.95 283.121 550.89 283.065 550.84C283.01 550.79 282.945 550.751 282.874 550.727C282.733 550.676 282.579 550.683 282.443 550.745C282.307 550.808 282.201 550.921 282.149 551.061L277.483 563.535C277.443 563.648 277.438 563.771 277.47 563.887C277.502 564.002 277.568 564.106 277.659 564.183C277.769 564.235 277.894 564.248 278.012 564.222Z" fill="black"/>
<path d="M92.2526 503.81C92.2526 503.81 185.309 456.461 205.833 463.228C232.768 472.074 281.56 545.137 281.56 545.137L238.767 586.562C238.767 586.562 194.483 526.759 187.387 527.622C179.173 528.544 133.047 547.942 116.619 542.666C100.192 537.39 92.2526 503.81 92.2526 503.81Z" fill="#203A7C"/>
<path d="M188.681 528.073C188.58 528.034 188.493 527.968 188.431 527.88C188.368 527.793 188.332 527.69 188.328 527.582C188.328 527.17 187.74 517.775 191.288 514.362C191.757 513.875 192.331 513.501 192.966 513.27C193.602 513.039 194.281 512.956 194.954 513.029C195.457 513.001 195.957 513.126 196.388 513.389C196.818 513.652 197.159 514.039 197.365 514.5C198.717 518.05 190.268 526.935 189.288 527.935C189.179 528.045 189.031 528.108 188.877 528.112L188.681 528.073ZM192.111 515.167C189.68 517.579 189.426 523.483 189.445 526.151C192.836 522.483 197.11 516.893 196.345 514.912C196.345 514.735 196.091 514.245 194.895 514.147H194.562C194.105 514.138 193.652 514.225 193.23 514.4C192.808 514.576 192.427 514.837 192.111 515.167Z" fill="black"/>
<path d="M98.1727 397.266C98.1727 397.266 33.9135 425.079 45.0873 473.094C55.7122 518.834 129.048 478.978 129.048 478.978L125.46 442.986L91.2332 446.635L98.1727 397.266Z" fill="#9ED3FF"/>
<path d="M79.7065 445.536H79.8241C93.0915 443.152 106.587 442.29 120.05 442.967C120.125 442.975 120.201 442.967 120.273 442.945C120.346 442.922 120.412 442.884 120.469 442.835C120.526 442.785 120.573 442.724 120.605 442.656C120.637 442.587 120.655 442.513 120.658 442.437C120.663 442.362 120.653 442.287 120.63 442.216C120.606 442.145 120.568 442.079 120.519 442.023C120.47 441.966 120.41 441.92 120.343 441.887C120.276 441.854 120.203 441.834 120.128 441.829C106.56 441.154 92.959 442.029 79.5889 444.438C79.4443 444.471 79.3182 444.559 79.2377 444.683C79.1571 444.808 79.1284 444.959 79.1576 445.105C79.1911 445.226 79.2624 445.333 79.3612 445.411C79.4599 445.488 79.581 445.532 79.7065 445.536Z" fill="black"/>
<path d="M82.8234 439.809C82.6965 439.483 82.6586 439.13 82.7138 438.785C82.7689 438.441 82.9151 438.117 83.1371 437.847C83.4202 437.468 83.779 437.152 84.1907 436.919C84.6024 436.686 85.0581 436.541 85.5287 436.494C89.959 435.866 97.4474 441.515 97.7611 441.77C97.8571 441.84 97.928 441.938 97.9633 442.051C97.9987 442.165 97.9965 442.286 97.9571 442.398C97.8395 442.731 97.5062 442.771 97.0162 442.771C94.0953 442.712 84.2937 442.516 82.8234 439.809ZM85.6855 437.553C85.3661 437.58 85.056 437.675 84.7756 437.83C84.4951 437.986 84.2508 438.199 84.0585 438.455C83.6664 438.965 83.784 439.22 83.8428 439.299C84.5681 440.75 90.6647 441.456 95.6047 441.574C93.3896 440.083 89.1749 437.514 86.254 437.514C86.0637 437.509 85.8733 437.522 85.6855 437.553Z" fill="black"/>
<path d="M117.619 401.149C119.793 401.148 121.954 400.817 124.029 400.169C124.109 400.154 124.184 400.123 124.25 400.078C124.317 400.032 124.373 399.973 124.415 399.904C124.456 399.836 124.483 399.759 124.493 399.679C124.503 399.599 124.496 399.518 124.472 399.441C124.448 399.364 124.408 399.293 124.355 399.232C124.302 399.172 124.236 399.124 124.163 399.09C124.09 399.057 124.01 399.04 123.93 399.04C123.849 399.04 123.77 399.057 123.696 399.09C120.592 400.046 117.306 400.253 114.106 399.694C110.907 399.135 107.885 397.826 105.289 395.873C105.172 395.799 105.033 395.77 104.897 395.791C104.761 395.812 104.637 395.881 104.549 395.987C104.46 396.092 104.413 396.226 104.415 396.364C104.418 396.502 104.471 396.634 104.563 396.736C108.316 399.596 112.902 401.147 117.619 401.149Z" fill="black"/>
<path d="M95.2519 491.963H95.4479C95.6831 491.865 118.207 483.195 129.361 475.879C129.424 475.838 129.479 475.785 129.521 475.723C129.564 475.66 129.594 475.59 129.609 475.517C129.625 475.443 129.625 475.367 129.611 475.293C129.598 475.219 129.569 475.148 129.528 475.085C129.487 475.022 129.434 474.967 129.371 474.925C129.309 474.882 129.239 474.852 129.166 474.837C129.092 474.821 129.016 474.821 128.942 474.835C128.868 474.849 128.797 474.877 128.734 474.918C117.697 482.175 95.2715 490.825 95.0362 490.904C94.9001 490.96 94.7913 491.068 94.7328 491.203C94.6742 491.338 94.6706 491.491 94.7226 491.629C94.7664 491.732 94.8405 491.819 94.9351 491.879C95.0297 491.939 95.1402 491.968 95.2519 491.963Z" fill="black"/>
<path d="M169.097 470.015C169.175 470.012 169.252 469.994 169.323 469.961C169.394 469.927 169.457 469.88 169.508 469.821C169.56 469.762 169.599 469.693 169.622 469.618C169.646 469.544 169.654 469.465 169.646 469.387C168.423 460.992 166.414 452.731 163.647 444.712C163.623 444.641 163.585 444.576 163.535 444.52C163.486 444.464 163.426 444.418 163.358 444.385C163.291 444.352 163.217 444.333 163.143 444.329C163.068 444.324 162.993 444.335 162.922 444.359C162.782 444.413 162.667 444.517 162.602 444.652C162.536 444.787 162.524 444.942 162.569 445.085C165.306 453.018 167.275 461.195 168.45 469.505C168.454 469.583 168.475 469.659 168.511 469.728C168.547 469.797 168.597 469.858 168.658 469.906C168.72 469.954 168.79 469.989 168.866 470.008C168.942 470.026 169.02 470.029 169.097 470.015Z" fill="black"/>
<path d="M99.4469 312.258H25.4841C24.7719 312.258 24.0888 311.975 23.5851 311.471C23.0814 310.967 22.7985 310.284 22.7985 309.571C22.7985 308.858 23.0814 308.175 23.5851 307.671C24.0888 307.167 24.7719 306.884 25.4841 306.884H99.4469C100.159 306.884 100.842 307.167 101.346 307.671C101.85 308.175 102.133 308.858 102.133 309.571C102.133 310.284 101.85 310.967 101.346 311.471C100.842 311.975 100.159 312.258 99.4469 312.258Z" fill="#509BFC"/>
<path d="M99.4469 327.929H25.4841C24.814 327.872 24.1898 327.565 23.735 327.069C23.2801 326.574 23.0277 325.925 23.0277 325.252C23.0277 324.579 23.2801 323.931 23.735 323.435C24.1898 322.939 24.814 322.632 25.4841 322.575H99.4469C99.8176 322.543 100.191 322.589 100.543 322.709C100.895 322.829 101.218 323.021 101.492 323.273C101.766 323.524 101.985 323.83 102.135 324.171C102.285 324.512 102.362 324.88 102.362 325.252C102.362 325.624 102.285 325.992 102.135 326.333C101.985 326.674 101.766 326.98 101.492 327.232C101.218 327.483 100.895 327.675 100.543 327.795C100.191 327.916 99.8176 327.961 99.4469 327.929Z" fill="#509BFC"/>
<path d="M589.86 192.729H360.463C359.532 192.729 358.777 193.484 358.777 194.416V207.773C358.777 208.705 359.532 209.46 360.463 209.46H589.86C590.791 209.46 591.546 208.705 591.546 207.773V194.416C591.546 193.484 590.791 192.729 589.86 192.729Z" fill="#509BFC"/>
<path d="M585.9 227.564H224.28C221.162 227.564 218.634 230.093 218.634 233.213V365.079C218.634 368.199 221.162 370.728 224.28 370.728H585.9C589.018 370.728 591.546 368.199 591.546 365.079V233.213C591.546 230.093 589.018 227.564 585.9 227.564Z" fill="#509BFC"/>
<defs>
<linearGradient id="paint0_linear_201_53" x1="404.335" y1="156.992" x2="404.335" y2="374.239" gradientUnits="userSpaceOnUse">
<stop stop-color="#5CA9FC"/>
<stop offset="1" stop-color="#4891FC"/>
</linearGradient>
<linearGradient id="paint1_linear_201_53" x1="224.104" y1="196.063" x2="602.667" y2="385.699" gradientUnits="userSpaceOnUse">
<stop stop-color="#FBFDFF"/>
<stop offset="1" stop-color="#CBE9FD"/>
</linearGradient>
</defs>
</svg>
