<svg width="29" height="34" viewBox="0 0 29 34" fill="none" xmlns="http://www.w3.org/2000/svg">
<path d="M21.23 0.0666504C19.4287 0.180267 17.3608 1.26954 16.1313 2.65668C15.0205 3.91834 14.1441 5.79211 14.5018 7.6049C16.4594 7.66086 18.4242 6.54337 19.6006 5.13079C20.6989 3.80978 21.5315 1.96592 21.23 0.0666504ZM21.3368 7.60158C18.5107 7.60158 17.329 9.48615 15.3715 9.48615C13.3577 9.48615 11.5168 7.72082 9.07963 7.72082C5.76448 7.72252 0.725098 11.0558 0.725098 18.909C0.725098 26.0533 6.68935 33.9821 10.0561 33.9821C12.1011 34.0042 12.5969 32.5865 15.3715 32.5712C18.1492 32.5492 18.7486 34.0008 20.7967 33.9821C23.1027 33.9635 24.9035 31.213 26.2189 29.0339C27.1626 27.4738 27.5505 26.6773 28.2816 24.9137C22.8558 23.4214 21.7763 13.924 28.2816 11.9603C27.0537 9.68622 23.4693 7.60158 21.3368 7.60158Z" fill="black"/>
</svg>
