<svg width="32" height="32" viewBox="0 0 32 32" fill="none" xmlns="http://www.w3.org/2000/svg">
<g clip-path="url(#clip0_108_137)">
<path fill-rule="evenodd" clip-rule="evenodd" d="M16.0879 0.903442C12.3155 0.905385 8.66689 2.23165 5.79436 4.64508C2.92183 7.05851 1.01272 10.4017 0.408413 14.0769C-0.195897 17.7521 0.543987 21.5197 2.49578 24.7059C4.44758 27.8921 7.484 30.2892 11.0621 31.4685C11.8515 31.6139 12.1488 31.1283 12.1488 30.7153C12.1488 30.3024 12.133 29.1052 12.1278 27.7962C7.7072 28.7442 6.7731 25.9445 6.7731 25.9445C6.05212 24.1266 5.01013 23.6487 5.01013 23.6487C3.56818 22.6774 5.11802 22.6956 5.11802 22.6956C6.71521 22.8072 7.5546 24.3135 7.5546 24.3135C8.97024 26.7106 11.2726 26.0172 12.1778 25.6121C12.3199 24.5966 12.733 23.9058 13.1882 23.5136C9.657 23.1189 5.94687 21.7736 5.94687 15.7639C5.92498 14.2054 6.51095 12.6981 7.58354 11.5541C7.4204 11.1593 6.87571 9.56471 7.73878 7.39875C7.73878 7.39875 9.07285 6.97802 12.1094 9.00634C14.7139 8.30335 17.4619 8.30335 20.0664 9.00634C23.1003 6.97802 24.4317 7.39875 24.4317 7.39875C25.2974 9.55952 24.7527 11.1541 24.5896 11.5541C25.6656 12.6983 26.2528 14.2082 26.2289 15.7691C26.2289 21.7918 22.5109 23.1189 18.9744 23.5058C19.5428 23.9941 20.0506 24.9472 20.0506 26.412C20.0506 28.5104 20.0322 30.1985 20.0322 30.7153C20.0322 31.1335 20.319 31.6217 21.1242 31.4685C24.7027 30.289 27.7394 27.8915 29.6912 24.7048C31.6429 21.518 32.3824 17.7499 31.7774 14.0744C31.1724 10.3988 29.2624 7.05557 26.3889 4.64256C23.5154 2.22954 19.8659 0.904154 16.0931 0.903442H16.0879Z" fill="#191717"/>
<path d="M6.21492 23.4227C6.18071 23.5007 6.05441 23.524 5.95179 23.4695C5.84917 23.415 5.77287 23.3137 5.8097 23.2332C5.84654 23.1526 5.97021 23.1319 6.07283 23.1864C6.17545 23.2409 6.25439 23.3448 6.21492 23.4227Z" fill="#191717"/>
<path d="M6.85951 24.1318C6.80502 24.1589 6.74267 24.1664 6.68315 24.1532C6.62363 24.1399 6.57064 24.1066 6.53323 24.0591C6.43061 23.95 6.40955 23.7993 6.48849 23.7318C6.56743 23.6643 6.70953 23.6955 6.81215 23.8045C6.91477 23.9136 6.93845 24.0642 6.85951 24.1318Z" fill="#191717"/>
<path d="M7.48581 25.0329C7.38845 25.1004 7.22267 25.0329 7.13057 24.8978C7.10511 24.8736 7.08486 24.8445 7.07102 24.8124C7.05719 24.7803 7.05005 24.7457 7.05005 24.7108C7.05005 24.6759 7.05719 24.6414 7.07102 24.6092C7.08486 24.5771 7.10511 24.5481 7.13057 24.5238C7.22793 24.4589 7.39371 24.5238 7.48581 24.6563C7.5779 24.7887 7.58053 24.9653 7.48581 25.0329Z" fill="#191717"/>
<path d="M8.33574 25.9056C8.24891 26.0017 8.07261 25.9757 7.92789 25.8459C7.78317 25.716 7.74896 25.5394 7.83579 25.4459C7.92262 25.3524 8.09892 25.3784 8.2489 25.5056C8.39889 25.6329 8.42783 25.8121 8.33574 25.9056Z" fill="#191717"/>
<path d="M9.52767 26.4147C9.4882 26.5368 9.30927 26.5913 9.13034 26.5394C8.95142 26.4874 8.83301 26.342 8.86722 26.2173C8.90142 26.0927 9.08298 26.0355 9.26454 26.0927C9.4461 26.1498 9.56188 26.2874 9.52767 26.4147Z" fill="#191717"/>
<path d="M10.8276 26.5029C10.8276 26.6301 10.6803 26.7392 10.4908 26.7418C10.3014 26.7444 10.1461 26.6405 10.1461 26.5133C10.1461 26.386 10.2935 26.2769 10.4829 26.2743C10.6724 26.2717 10.8276 26.373 10.8276 26.5029Z" fill="#191717"/>
<path d="M12.038 26.3029C12.0617 26.4302 11.9302 26.5627 11.7407 26.5938C11.5513 26.625 11.3855 26.5497 11.3618 26.425C11.3381 26.3003 11.4749 26.1653 11.6591 26.1315C11.8433 26.0978 12.0144 26.1757 12.038 26.3029Z" fill="#191717"/>
</g>
<defs>
<clipPath id="clip0_108_137">
<rect width="31.7808" height="31.547" fill="white" transform="translate(0.197144 0.246216)"/>
</clipPath>
</defs>
</svg>
