<svg width="32" height="32" viewBox="0 0 32 32" fill="none" xmlns="http://www.w3.org/2000/svg">
<g clip-path="url(#clip0_108_134)">
<path d="M31.3814 16.3831C31.3814 15.3109 31.2945 14.2328 31.109 13.178H16.231V19.2521H24.7509C24.3974 21.2111 23.2614 22.944 21.598 24.0453V27.9865H26.681C29.6658 25.2392 31.3814 21.1821 31.3814 16.3831Z" fill="#4285F4"/>
<path d="M16.2308 31.7943C20.485 31.7943 24.0727 30.3975 26.6866 27.9864L21.6036 24.0452C20.1894 25.0073 18.3637 25.5521 16.2366 25.5521C12.1216 25.5521 8.63244 22.7759 7.38053 19.0433H2.13525V23.1062C4.81295 28.4327 10.2669 31.7943 16.2308 31.7943V31.7943Z" fill="#34A853"/>
<path d="M7.37479 19.0433C6.71405 17.0843 6.71405 14.963 7.37479 13.004V8.94104H2.13531C-0.101905 13.3981 -0.101905 18.6491 2.13531 23.1062L7.37479 19.0433V19.0433Z" fill="#FBBC04"/>
<path d="M16.2308 6.48945C18.4796 6.45467 20.6531 7.30087 22.2817 8.85417L26.7851 4.35076C23.9336 1.67307 20.1489 0.200912 16.2308 0.247279C10.2669 0.247279 4.81295 3.60889 2.13525 8.9411L7.37473 13.004C8.62085 9.26567 12.1158 6.48945 16.2308 6.48945V6.48945Z" fill="#EA4335"/>
</g>
<defs>
<clipPath id="clip0_108_134">
<path d="M0.141968 5.54555C0.141968 2.61881 2.51456 0.246216 5.4413 0.246216H26.3896C29.3164 0.246216 31.689 2.61881 31.689 5.54555V26.4939C31.689 29.4206 29.3164 31.7932 26.3896 31.7932H5.4413C2.51456 31.7932 0.141968 29.4206 0.141968 26.4939V5.54555Z" fill="white"/>
</clipPath>
</defs>
</svg>
