<svg width="32" height="32" viewBox="0 0 32 32" fill="none" xmlns="http://www.w3.org/2000/svg">
<g clip-path="url(#clip0_108_136)">
<path d="M29.6232 0.246216H2.53452C1.91231 0.246216 1.31558 0.491569 0.875616 0.928301C0.435648 1.36503 0.188477 1.95737 0.188477 2.575V29.4644C0.188477 30.0821 0.435648 30.6744 0.875616 31.1111C1.31558 31.5479 1.91231 31.7932 2.53452 31.7932H29.6232C30.2454 31.7932 30.8421 31.5479 31.2821 31.1111C31.7221 30.6744 31.9693 30.0821 31.9693 29.4644V2.575C31.9693 1.95737 31.7221 1.36503 31.2821 0.928301C30.8421 0.491569 30.2454 0.246216 29.6232 0.246216ZM9.66091 27.1203H4.88276V12.0544H9.66091V27.1203ZM7.26853 9.96663C6.72653 9.9636 6.19758 9.80127 5.74844 9.50012C5.29929 9.19896 4.95008 8.77249 4.74488 8.27452C4.53968 7.77655 4.48768 7.2294 4.59545 6.70212C4.70322 6.17484 4.96592 5.69107 5.35041 5.31185C5.7349 4.93264 6.22393 4.67498 6.7558 4.57139C7.28766 4.4678 7.83852 4.52293 8.33886 4.72981C8.83919 4.9367 9.26658 5.28607 9.56707 5.73383C9.86757 6.1816 10.0277 6.70769 10.0273 7.24571C10.0324 7.60591 9.96439 7.96345 9.82734 8.29702C9.69028 8.63058 9.48698 8.93334 9.22954 9.18725C8.9721 9.44116 8.6658 9.64102 8.32889 9.77492C7.99198 9.90882 7.63136 9.97402 7.26853 9.96663ZM27.2728 27.1335H22.4968V18.9028C22.4968 16.4754 21.4573 15.7262 20.1155 15.7262C18.6986 15.7262 17.3082 16.7865 17.3082 18.9641V27.1335H12.53V12.0654H17.125V14.1532H17.1868C17.648 13.2265 19.2636 11.6426 21.7288 11.6426C24.3948 11.6426 27.275 13.2133 27.275 17.814L27.2728 27.1335Z" fill="#0A66C2"/>
</g>
<defs>
<clipPath id="clip0_108_136">
<path d="M0.188477 1.30608C0.188477 0.720733 0.662995 0.246216 1.24834 0.246216H30.9094C31.4947 0.246216 31.9693 0.720734 31.9693 1.30608V30.7333C31.9693 31.3187 31.4947 31.7932 30.9094 31.7932H1.24834C0.662996 31.7932 0.188477 31.3187 0.188477 30.7333V1.30608Z" fill="white"/>
</clipPath>
</defs>
</svg>
