<svg width="121" height="40" viewBox="0 0 121 40" fill="none" xmlns="http://www.w3.org/2000/svg">
<ellipse cx="21.3582" cy="20" rx="20.5" ry="20" fill="#458FF6"/>
<path d="M59.856 27V12.624H54.264V10.08H68.544V12.624H62.952V27H59.856ZM68.5924 27V17.976C68.5924 17.464 68.5764 16.944 68.5444 16.416C68.5284 15.888 68.4884 15.376 68.4244 14.88H71.3284L71.6644 18.192H71.1844C71.3444 17.392 71.6084 16.728 71.9764 16.2C72.3604 15.672 72.8244 15.28 73.3684 15.024C73.9124 14.768 74.5044 14.64 75.1444 14.64C75.4324 14.64 75.6644 14.656 75.8404 14.688C76.0164 14.704 76.1924 14.744 76.3684 14.808L76.3444 17.448C76.0404 17.32 75.7764 17.24 75.5524 17.208C75.3444 17.176 75.0804 17.16 74.7604 17.16C74.0724 17.16 73.4884 17.304 73.0084 17.592C72.5444 17.88 72.1924 18.28 71.9524 18.792C71.7284 19.304 71.6164 19.888 71.6164 20.544V27H68.5924ZM82.6011 27.24C81.5451 27.24 80.6171 26.992 79.8171 26.496C79.0171 25.984 78.3931 25.256 77.9451 24.312C77.4971 23.368 77.2731 22.24 77.2731 20.928C77.2731 19.616 77.4971 18.496 77.9451 17.568C78.3931 16.624 79.0171 15.904 79.8171 15.408C80.6171 14.896 81.5451 14.64 82.6011 14.64C83.6251 14.64 84.5211 14.896 85.2891 15.408C86.0731 15.904 86.5931 16.576 86.8491 17.424H86.5851L86.8491 14.88H89.7291C89.6811 15.376 89.6331 15.88 89.5851 16.392C89.5531 16.904 89.5371 17.408 89.5371 17.904V27H86.5611L86.5371 24.504H86.8251C86.5691 25.336 86.0491 26 85.2651 26.496C84.4811 26.992 83.5931 27.24 82.6011 27.24ZM83.4411 24.936C84.3851 24.936 85.1451 24.608 85.7211 23.952C86.2971 23.28 86.5851 22.272 86.5851 20.928C86.5851 19.584 86.2971 18.584 85.7211 17.928C85.1451 17.272 84.3851 16.944 83.4411 16.944C82.4971 16.944 81.7371 17.272 81.1611 17.928C80.5851 18.584 80.2971 19.584 80.2971 20.928C80.2971 22.272 80.5771 23.28 81.1371 23.952C81.7131 24.608 82.4811 24.936 83.4411 24.936ZM92.8039 27V9.336H95.8039V27H92.8039ZM99.0617 27V14.88H102.062V27H99.0617ZM98.8937 12.6V9.672H102.23V12.6H98.8937ZM110.792 27.24C109.544 27.24 108.464 26.984 107.552 26.472C106.64 25.96 105.928 25.232 105.416 24.288C104.92 23.344 104.672 22.224 104.672 20.928C104.672 19.632 104.92 18.52 105.416 17.592C105.928 16.648 106.64 15.92 107.552 15.408C108.464 14.896 109.544 14.64 110.792 14.64C112.04 14.64 113.12 14.896 114.032 15.408C114.96 15.92 115.672 16.648 116.168 17.592C116.68 18.52 116.936 19.632 116.936 20.928C116.936 22.224 116.68 23.344 116.168 24.288C115.672 25.232 114.96 25.96 114.032 26.472C113.12 26.984 112.04 27.24 110.792 27.24ZM110.792 24.936C111.736 24.936 112.488 24.608 113.048 23.952C113.608 23.28 113.888 22.272 113.888 20.928C113.888 19.584 113.608 18.584 113.048 17.928C112.488 17.272 111.736 16.944 110.792 16.944C109.848 16.944 109.096 17.272 108.536 17.928C107.976 18.584 107.696 19.584 107.696 20.928C107.696 22.272 107.976 23.28 108.536 23.952C109.096 24.608 109.848 24.936 110.792 24.936Z" fill="white"/>
<path d="M19.344 29V13.426H13.286V10.67H28.756V13.426H22.698V29H19.344Z" fill="white"/>
</svg>
