<svg width="119" height="41" viewBox="0 0 119 41" fill="none" xmlns="http://www.w3.org/2000/svg">
<path d="M59.6209 28.5928V14.2168H54.0289V11.6728H68.3089V14.2168H62.7169V28.5928H59.6209ZM68.3573 28.5928V19.5688C68.3573 19.0568 68.3413 18.5368 68.3093 18.0088C68.2933 17.4808 68.2533 16.9688 68.1893 16.4728H71.0933L71.4293 19.7848H70.9493C71.1093 18.9848 71.3733 18.3208 71.7413 17.7928C72.1253 17.2648 72.5893 16.8728 73.1333 16.6168C73.6773 16.3608 74.2693 16.2328 74.9093 16.2328C75.1973 16.2328 75.4293 16.2488 75.6053 16.2808C75.7813 16.2968 75.9573 16.3368 76.1333 16.4008L76.1093 19.0408C75.8053 18.9128 75.5413 18.8328 75.3173 18.8008C75.1093 18.7688 74.8453 18.7528 74.5253 18.7528C73.8373 18.7528 73.2533 18.8968 72.7733 19.1848C72.3093 19.4728 71.9573 19.8728 71.7173 20.3848C71.4933 20.8968 71.3813 21.4808 71.3813 22.1368V28.5928H68.3573ZM82.366 28.8328C81.31 28.8328 80.382 28.5848 79.582 28.0888C78.782 27.5768 78.158 26.8488 77.71 25.9048C77.262 24.9608 77.038 23.8328 77.038 22.5208C77.038 21.2088 77.262 20.0888 77.71 19.1608C78.158 18.2168 78.782 17.4968 79.582 17.0008C80.382 16.4888 81.31 16.2328 82.366 16.2328C83.39 16.2328 84.286 16.4888 85.054 17.0008C85.838 17.4968 86.358 18.1688 86.614 19.0168H86.35L86.614 16.4728H89.494C89.446 16.9688 89.398 17.4728 89.35 17.9848C89.318 18.4968 89.302 19.0008 89.302 19.4968V28.5928H86.326L86.302 26.0968H86.59C86.334 26.9288 85.814 27.5928 85.03 28.0888C84.246 28.5848 83.358 28.8328 82.366 28.8328ZM83.206 26.5288C84.15 26.5288 84.91 26.2008 85.486 25.5448C86.062 24.8728 86.35 23.8648 86.35 22.5208C86.35 21.1768 86.062 20.1768 85.486 19.5208C84.91 18.8648 84.15 18.5368 83.206 18.5368C82.262 18.5368 81.502 18.8648 80.926 19.5208C80.35 20.1768 80.062 21.1768 80.062 22.5208C80.062 23.8648 80.342 24.8728 80.902 25.5448C81.478 26.2008 82.246 26.5288 83.206 26.5288ZM92.5688 28.5928V10.9288H95.5688V28.5928H92.5688ZM98.8266 28.5928V16.4728H101.827V28.5928H98.8266ZM98.6586 14.1928V11.2648H101.995V14.1928H98.6586ZM110.556 28.8328C109.308 28.8328 108.228 28.5768 107.316 28.0648C106.404 27.5528 105.692 26.8248 105.18 25.8808C104.684 24.9368 104.436 23.8168 104.436 22.5208C104.436 21.2248 104.684 20.1128 105.18 19.1848C105.692 18.2408 106.404 17.5128 107.316 17.0008C108.228 16.4888 109.308 16.2328 110.556 16.2328C111.804 16.2328 112.884 16.4888 113.796 17.0008C114.724 17.5128 115.436 18.2408 115.932 19.1848C116.444 20.1128 116.7 21.2248 116.7 22.5208C116.7 23.8168 116.444 24.9368 115.932 25.8808C115.436 26.8248 114.724 27.5528 113.796 28.0648C112.884 28.5768 111.804 28.8328 110.556 28.8328ZM110.556 26.5288C111.5 26.5288 112.252 26.2008 112.812 25.5448C113.372 24.8728 113.652 23.8648 113.652 22.5208C113.652 21.1768 113.372 20.1768 112.812 19.5208C112.252 18.8648 111.5 18.5368 110.556 18.5368C109.612 18.5368 108.86 18.8648 108.3 19.5208C107.74 20.1768 107.46 21.1768 107.46 22.5208C107.46 23.8648 107.74 24.8728 108.3 25.5448C108.86 26.2008 109.612 26.5288 110.556 26.5288Z" fill="white"/>
<ellipse cx="20.7959" cy="20.5" rx="20.7959" ry="20.5" fill="white"/>
<path d="M19.5316 28.728V13.154H13.4736V10.398H28.9436V13.154H22.8856V28.728H19.5316Z" fill="#458FF6"/>
</svg>
