<svg width="126" height="45" viewBox="0 0 126 45" fill="none" xmlns="http://www.w3.org/2000/svg">
<path d="M63.3774 33.0531V17.8165H57.4506V15.1202H72.5855V17.8165H66.6587V33.0531H63.3774ZM72.6368 33.0531V23.4889C72.6368 22.9462 72.6198 22.3951 72.5859 21.8355C72.5689 21.2759 72.5265 20.7332 72.4587 20.2075H75.5365L75.8927 23.7178H75.3839C75.5535 22.8699 75.8333 22.1661 76.2233 21.6065C76.6303 21.0469 77.1221 20.6315 77.6987 20.3601C78.2752 20.0888 78.9027 19.9531 79.581 19.9531C79.8862 19.9531 80.1321 19.9701 80.3187 20.004C80.5052 20.021 80.6917 20.0634 80.8783 20.1312L80.8528 22.9293C80.5306 22.7936 80.2508 22.7088 80.0134 22.6749C79.793 22.641 79.5132 22.624 79.174 22.624C78.4448 22.624 77.8259 22.7766 77.3171 23.0819C76.8253 23.3871 76.4523 23.8111 76.1979 24.3537C75.9605 24.8964 75.8418 25.5153 75.8418 26.2106V33.0531H72.6368ZM87.4841 33.3075C86.3649 33.3075 85.3813 33.0446 84.5334 32.5189C83.6855 31.9763 83.0242 31.2047 82.5494 30.2042C82.0745 29.2037 81.8371 28.0081 81.8371 26.6176C81.8371 25.227 82.0745 24.04 82.5494 23.0564C83.0242 22.0559 83.6855 21.2928 84.5334 20.7671C85.3813 20.2245 86.3649 19.9531 87.4841 19.9531C88.5694 19.9531 89.519 20.2245 90.333 20.7671C91.164 21.2928 91.7151 22.005 91.9864 22.9038H91.7066L91.9864 20.2075H95.0388C94.988 20.7332 94.9371 21.2674 94.8862 21.81C94.8523 22.3527 94.8353 22.8869 94.8353 23.4126V33.0531H91.6812L91.6557 30.4077H91.961C91.6896 31.2895 91.1385 31.9932 90.3076 32.5189C89.4766 33.0446 88.5355 33.3075 87.4841 33.3075ZM88.3744 30.8655C89.3749 30.8655 90.1804 30.5179 90.7909 29.8226C91.4014 29.1104 91.7066 28.042 91.7066 26.6176C91.7066 25.1931 91.4014 24.1333 90.7909 23.438C90.1804 22.7427 89.3749 22.3951 88.3744 22.3951C87.3739 22.3951 86.5684 22.7427 85.9579 23.438C85.3474 24.1333 85.0422 25.1931 85.0422 26.6176C85.0422 28.042 85.3389 29.1104 85.9325 29.8226C86.5429 30.5179 87.3569 30.8655 88.3744 30.8655ZM98.2977 33.0531V14.3316H101.477V33.0531H98.2977ZM104.93 33.0531V20.2075H108.11V33.0531H104.93ZM104.752 17.791V14.6877H108.288V17.791H104.752ZM117.362 33.3075C116.039 33.3075 114.895 33.0361 113.928 32.4935C112.962 31.9508 112.207 31.1793 111.664 30.1787C111.139 29.1782 110.876 27.9912 110.876 26.6176C110.876 25.244 111.139 24.0654 111.664 23.0819C112.207 22.0814 112.962 21.3098 113.928 20.7671C114.895 20.2245 116.039 19.9531 117.362 19.9531C118.685 19.9531 119.83 20.2245 120.796 20.7671C121.78 21.3098 122.534 22.0814 123.06 23.0819C123.603 24.0654 123.874 25.244 123.874 26.6176C123.874 27.9912 123.603 29.1782 123.06 30.1787C122.534 31.1793 121.78 31.9508 120.796 32.4935C119.83 33.0361 118.685 33.3075 117.362 33.3075ZM117.362 30.8655C118.363 30.8655 119.16 30.5179 119.753 29.8226C120.347 29.1104 120.644 28.042 120.644 26.6176C120.644 25.1931 120.347 24.1333 119.753 23.438C119.16 22.7427 118.363 22.3951 117.362 22.3951C116.362 22.3951 115.565 22.7427 114.971 23.438C114.378 24.1333 114.081 25.1931 114.081 26.6176C114.081 28.042 114.378 29.1104 114.971 29.8226C115.565 30.5179 116.362 30.8655 117.362 30.8655Z" fill="#233348"/>
<circle cx="22.7251" cy="22.4212" r="21.7273" fill="#458FF6"/>
<path d="M18.2779 33.9933L20.8958 17.4869H14.4751L14.9436 14.5659H31.3397L30.8712 17.4869H24.4506L21.8327 33.9933H18.2779Z" fill="white"/>
</svg>
